<?xml version="1.0" standalone="no"?>
<!DOCTYPE svg PUBLIC "-//W3C//DTD SVG 20010904//EN"
 "http://www.w3.org/TR/2001/REC-SVG-20010904/DTD/svg10.dtd">
<svg version="1.0" xmlns="http://www.w3.org/2000/svg"
 width="260.000000pt" height="260.000000pt" viewBox="0 0 260.000000 260.000000"
 preserveAspectRatio="xMidYMid meet">
<metadata>
Created by potrace 1.11, written by Peter Selinger 2001-2013
</metadata>
<g transform="translate(0.000000,260.000000) scale(0.100000,-0.100000)"
fill="#000000" stroke="none">
<path d="M470 2561 c-183 -50 -320 -164 -397 -331 -34 -73 -44 -120 -49 -216
-11 -240 118 -458 331 -559 112 -53 151 -58 475 -61 299 -2 352 3 366 34 4 9
8 152 9 317 2 321 -4 377 -51 482 -66 150 -200 270 -363 324 -89 30 -231 34
-321 10z m242 -176 c91 -20 193 -95 250 -184 53 -84 61 -133 63 -381 1 -124 0
-229 -2 -235 -4 -12 -402 -12 -478 -1 -27 5 -51 7 -53 7 -1 -1 -29 12 -62 30
-148 78 -232 223 -224 385 9 197 144 346 349 387 27 5 116 1 157 -8z"/>
<path d="M1850 2565 c-135 -33 -251 -108 -335 -215 -56 -73 -82 -127 -106
-217 -81 -320 110 -637 436 -723 61 -16 658 -22 691 -7 12 5 26 19 31 31 6 12
9 152 8 331 -2 250 -6 322 -19 370 -53 195 -205 355 -396 416 -81 26 -232 33
-310 14z"/>
<path d="M1845 1194 c-260 -63 -451 -300 -453 -565 -2 -100 14 -168 59 -268
71 -153 232 -283 399 -322 75 -17 202 -15 279 5 227 58 404 255 438 486 4 25
7 179 8 343 l0 299 -24 19 c-22 18 -42 19 -335 18 -235 0 -326 -4 -371 -15z"/>
</g>
</svg>
