<?xml version="1.0" encoding="utf-8"?>
<!-- Generator: Adobe Illustrator 21.1.0, SVG Export Plug-In . SVG Version: 6.00 Build 0)  -->
<svg version="1.1" id="Layer_1" xmlns="http://www.w3.org/2000/svg" xmlns:xlink="http://www.w3.org/1999/xlink" x="0px" y="0px"
	 viewBox="0 0 200 100" style="enable-background:new 0 0 200 100;" xml:space="preserve">
<style type="text/css">
	.st0{fill:#52B84D;}
	.st1{fill:#FFFFFF;}
	.st2{opacity:0.75;fill:#FFFFFF;}
</style>
<g>
	<path class="st0" d="M7.8,28.4c-4.3,0-7.8,3.5-7.8,7.8c0,4.3,3.5,7.8,7.8,7.8h5.9c1.1,0,2-0.9,2-2v-5.9
		C15.6,31.9,12.1,28.4,7.8,28.4z M13.2,41.7H7.8c-3,0-5.4-2.4-5.4-5.4s2.4-5.4,5.4-5.4s5.4,2.4,5.4,5.4V41.7z"/>
	<path class="st0" d="M25.9,28.4c-4.3,0-7.8,3.5-7.8,7.8c0,4.3,3.5,7.8,7.8,7.8h5.9c1.1,0,2-0.9,2-2v-5.9
		C33.7,31.9,30.2,28.4,25.9,28.4z"/>
	<path class="st0" d="M31.7,46.5h-5.9c-4.3,0-7.8,3.5-7.8,7.8c0,4.3,3.5,7.8,7.8,7.8c4.3,0,7.8-3.5,7.8-7.8v-5.9
		C33.7,47.3,32.8,46.5,31.7,46.5z"/>
	<path class="st1" d="M75.1,54.8L73.2,54c-0.7,3-1.8,4.5-3,4.5c-1,0-1.8-0.5-1.8-3.3V36.5c0-1.3-0.4-2.9-1-3.8
		c-1-1.6-3.8-4.2-10-4.2c-8.1,0-13.5,4.8-13.5,8.6c0,2.4,1.6,3.3,3.2,3.3c1,0,1.8-0.3,2.5-0.7c0.4-0.3,0.8-0.9,0.7-1.6
		c-0.1-0.6-0.3-1.4-0.3-2.2c0-3,1.9-5.3,6.3-5.3c4.2,0,5.8,3,5.8,6.2v2.9c-3,2.1-10.4,4.4-15.5,6.6c-3,1.3-4.1,3.7-4.1,6.7
		c0,5.2,3.3,9.1,9,9.1c3.5,0,7.3-1.9,10.6-5.5c0.4,3.2,1.9,5.5,5.8,5.5C71.1,62,74.1,60.1,75.1,54.8z M62,50.2c0,1-0.1,2.2-0.4,3.1
		c-1.3,2.7-3.4,4.8-6.9,4.8c-3.3,0-5.2-2.8-5.2-6.3c0-3.3,1.6-4.4,3.8-5.6C56,44.8,60,43.1,62,42V50.2z"/>
	<path class="st1" d="M195.3,28.4c-4.6,0-7.2,3.6-8.9,7.5h-0.2c0-1.6-0.2-5.5-0.5-7.2l-0.2-0.2c-2.9,0.8-7.2,1.2-10.3,1.3l-0.1,2
		l2.9,0.1c1,0,1.4,0.4,1.6,1.1c0.2,1.3,0.5,4.5,0.5,9.2v6.1c0,4.3-0.1,7.7-0.4,9.2c-0.1,1.3-0.8,1.6-4.5,1.8l-0.3,2.1
		c2.7,0,5.2-0.2,8.4-0.2c3.3,0,6.7,0.2,9.4,0.2l0.3-2.1c-5.6-0.2-6.1-0.6-6.2-2.2c-0.1-1.8-0.1-5.2-0.1-13.4c0-1.7,0.1-2.9,0.5-4.1
		c0.9-3.1,2.7-6.1,4.8-6.1c1.6,0,2.1,1,2.6,2.5c0.3,0.8,1,1.2,2.1,1.2c1.1,0,3.4-1,3.4-4.1C200,30.7,198.4,28.4,195.3,28.4z"/>
	<path class="st1" d="M123.1,28.4c-4.2,0-7.7,2-11.6,5.5v-6.6c0-8.9,0.2-13.9,0.3-16.4c-2.4,0.5-8.5,1-11.9,1l-0.1,2.1
		c4.2,0,4.8,0.1,4.9,1.3c0.1,1.8,0.2,4.3,0.2,10v17.4c0,8.6-0.1,16.2-0.1,19l0.6,0.4c1.6-0.7,3.3-1.6,4.4-2.1
		c1.8,1.2,5.6,2.1,8.9,2.1c11,0,16.9-6.9,16.9-18.3c0-3.9-0.9-7.8-2.5-10.3C130.8,30.4,127.7,28.4,123.1,28.4z M118.7,59.8
		c-2.5,0-5.1-1.1-6.4-3.7c-0.6-1.1-1-1.6-1-9.9c0-7.8,0.2-8.6,0.8-9.6c1.5-2.4,4.4-4.7,7.9-4.7c2.7,0,4.7,1.1,5.9,3.2
		c1.4,2.2,2.1,5.5,2.1,9.2C128.1,53,125.5,59.8,118.7,59.8z"/>
	<path class="st1" d="M93.6,59.1c-5.6-0.2-6.1-0.6-6.2-2.2c-0.1-1.8-0.1-5.2-0.1-13.4c0-1.7,0.1-2.9,0.5-4.1
		c0.9-3.1,2.7-6.1,4.8-6.1c1.6,0,2.1,1,2.6,2.5c0.3,0.8,1,1.2,2.1,1.2c1.1,0,3.4-1,3.4-4.1c0-2.1-1.6-4.4-4.7-4.4
		c-4.6,0-7.2,3.6-8.9,7.5h-0.2c0-1.6-0.2-5.5-0.5-7.2l-0.2-0.2c-2.9,0.8-7.2,1.2-10.3,1.3l-0.1,2l2.9,0.1c1,0,1.4,0.4,1.6,1.1
		c0.2,1.3,0.5,4.5,0.5,9.2v6.1c0,4.3-0.1,7.7-0.4,9.2c-0.1,1.3-0.8,1.6-4.5,1.8l-0.3,2.1c2.7,0,5.2-0.2,8.4-0.2
		c3.3,0,6.7,0.2,9.4,0.2L93.6,59.1z"/>
	<path class="st1" d="M156.6,28.4c-10.6,0-16.5,7.7-16.5,17.1c0,9.5,5.2,16.6,16,16.6c10.2,0,16.3-6.8,16.3-17.1
		C172.4,35.3,166.5,28.4,156.6,28.4z M163.1,55.9c-1.4,2.7-3.5,3.9-6.4,3.9c-3,0-5.4-1.6-6.9-4.5c-1.3-2.5-2.1-6.5-2.1-10.9
		c0-4.3,0.8-7.9,2.1-10.1c1.5-2.2,3.4-3.6,6.4-3.6c3.2,0,5.3,1.7,6.7,4.2c1.3,2.3,2.1,6.2,2.1,10.8C165,50.1,164.2,53.7,163.1,55.9z
		"/>
	<path class="st2" d="M147.6,72.5h-5v16.3h1.5v-6.5h3.6c3.5,0,5-2.3,5-4.9C152.6,74.8,151.1,72.5,147.6,72.5z M147.6,80.9H144v-7.2
		h3.6c2.7,0,3.5,1.9,3.5,3.6C151.1,79.1,150.3,80.9,147.6,80.9z"/>
	<path class="st2" d="M129,81.2c0,4.5-2.1,6.5-5.3,6.5c-3.1,0-5.2-2-5.2-6.5v-8.8H117v8.7c0,5.5,2.7,7.9,6.7,7.9
		c4,0,6.7-2.5,6.7-7.9v-8.7H129V81.2z"/>
	<path class="st2" d="M51.3,82.2h3.3v4.4c-1.2,0.7-2.7,1.1-4.5,1.1c-3.9,0-6.8-2.9-6.8-7.2c0-4.3,2.8-7.1,6.8-7.1
		c2.3,0,4,0.8,5.3,1.8v-1.6c-1.3-1-3.4-1.6-5.3-1.6c-4.5,0-8.3,3.2-8.3,8.5s3.8,8.5,8.3,8.5c2.8,0,4.7-1.1,6-1.7v-6.5h-4.8V82.2z"/>
	<path class="st2" d="M97.5,72c-4.8,0-8.3,3.6-8.3,8.5c0,5,3.5,8.5,8.3,8.5c4.8,0,8.3-3.6,8.3-8.5C105.8,75.6,102.2,72,97.5,72z
		 M97.5,87.7c-3.9,0-6.8-2.9-6.8-7.2c0-4.3,2.8-7.2,6.8-7.2c3.9,0,6.8,2.9,6.8,7.2C104.2,84.9,101.3,87.7,97.5,87.7z"/>
	<path class="st2" d="M78.2,77.2c0-2.5-1.5-4.8-5-4.8h-5v16.3h1.5V82h3.4l4.7,6.7h1.8l-4.9-6.9C77.1,81.3,78.2,79.4,78.2,77.2z
		 M69.6,80.7v-6.9h3.6c2.7,0,3.5,1.8,3.5,3.4c0,1.7-0.8,3.4-3.5,3.4H69.6z"/>
</g>
</svg>
