<?xml version="1.0" encoding="UTF-8"?>
<svg width="476px" height="476px" viewBox="0 0 476 476" version="1.1" xmlns="http://www.w3.org/2000/svg" xmlns:xlink="http://www.w3.org/1999/xlink">
    <!-- Generator: Sketch 47.1 (45422) - http://www.bohemiancoding.com/sketch -->
    <title>pattern</title>
    <desc>Created with Sketch.</desc>
    <defs></defs>
    <g id="Page-1" stroke="none" stroke-width="1" fill="none" fill-rule="evenodd">
        <g id="home" transform="translate(-1099.000000, -370.000000)">
            <g id="Group-4">
                <g id="pattern" transform="translate(1099.000000, 370.000000)">
                    <g id="Group-2">
                        <g id="logo-12">
                            <g id="logo">
                                <g id="mark">
                                    <path d="M25.125,25.125 L25.125,13 C25.125,6.30354741 19.6964526,0.875 13,0.875 C6.30354741,0.875 0.875,6.30354741 0.875,13 C0.875,19.6964526 6.30354741,25.125 13,25.125 L25.125,25.125 Z" id="Rectangle" stroke="#52B84F" stroke-width="1.75"></path>
                                    <path d="M43,0 L43,0 L43,0 C50.1797017,-1.31888981e-15 56,5.82029825 56,13 L56,25.25 L56,25.25 C56,25.6642136 55.6642136,26 55.25,26 L43,26 L43,26 C35.8202983,26 30,20.1797017 30,13 L30,13 L30,13 C30,5.82029825 35.8202983,1.31888981e-15 43,0 Z" id="Rectangle" fill="#52B84F"></path>
                                    <path d="M43,30 L55.25,30 L55.25,30 C55.6642136,30 56,30.3357864 56,30.75 L56,43 L56,43 C56,50.1797017 50.1797017,56 43,56 L43,56 L43,56 C35.8202983,56 30,50.1797017 30,43 L30,43 L30,43 C30,35.8202983 35.8202983,30 43,30 Z" id="Rectangle" fill="#52B84F"></path>
                                </g>
                            </g>
                        </g>
                        <g id="logo-12" transform="translate(60.000000, 0.000000)">
                            <g id="logo">
                                <g id="mark">
                                    <path d="M25.125,25.125 L25.125,13 C25.125,6.30354741 19.6964526,0.875 13,0.875 C6.30354741,0.875 0.875,6.30354741 0.875,13 C0.875,19.6964526 6.30354741,25.125 13,25.125 L25.125,25.125 Z" id="Rectangle" stroke="#52B84F" stroke-width="1.75"></path>
                                    <path d="M43,0 L43,0 L43,0 C50.1797017,-1.31888981e-15 56,5.82029825 56,13 L56,25.25 L56,25.25 C56,25.6642136 55.6642136,26 55.25,26 L43,26 L43,26 C35.8202983,26 30,20.1797017 30,13 L30,13 L30,13 C30,5.82029825 35.8202983,1.31888981e-15 43,0 Z" id="Rectangle" fill="#52B84F"></path>
                                    <path d="M43,30 L55.25,30 L55.25,30 C55.6642136,30 56,30.3357864 56,30.75 L56,43 L56,43 C56,50.1797017 50.1797017,56 43,56 L43,56 L43,56 C35.8202983,56 30,50.1797017 30,43 L30,43 L30,43 C30,35.8202983 35.8202983,30 43,30 Z" id="Rectangle" fill="#52B84F"></path>
                                </g>
                            </g>
                        </g>
                        <g id="logo-12" transform="translate(0.000000, 60.000000)">
                            <g id="logo">
                                <g id="mark">
                                    <path d="M25.125,25.125 L25.125,13 C25.125,6.30354741 19.6964526,0.875 13,0.875 C6.30354741,0.875 0.875,6.30354741 0.875,13 C0.875,19.6964526 6.30354741,25.125 13,25.125 L25.125,25.125 Z" id="Rectangle" stroke="#52B84F" stroke-width="1.75"></path>
                                    <path d="M43,0 L43,0 L43,0 C50.1797017,-1.31888981e-15 56,5.82029825 56,13 L56,25.25 L56,25.25 C56,25.6642136 55.6642136,26 55.25,26 L43,26 L43,26 C35.8202983,26 30,20.1797017 30,13 L30,13 L30,13 C30,5.82029825 35.8202983,1.31888981e-15 43,0 Z" id="Rectangle" fill="#52B84F"></path>
                                    <path d="M43,30 L55.25,30 L55.25,30 C55.6642136,30 56,30.3357864 56,30.75 L56,43 L56,43 C56,50.1797017 50.1797017,56 43,56 L43,56 L43,56 C35.8202983,56 30,50.1797017 30,43 L30,43 L30,43 C30,35.8202983 35.8202983,30 43,30 Z" id="Rectangle" fill="#52B84F"></path>
                                </g>
                            </g>
                        </g>
                        <g id="logo-12" transform="translate(60.000000, 60.000000)">
                            <g id="logo">
                                <g id="mark">
                                    <path d="M25.125,25.125 L25.125,13 C25.125,6.30354741 19.6964526,0.875 13,0.875 C6.30354741,0.875 0.875,6.30354741 0.875,13 C0.875,19.6964526 6.30354741,25.125 13,25.125 L25.125,25.125 Z" id="Rectangle" stroke="#52B84F" stroke-width="1.75"></path>
                                    <path d="M43,0 L43,0 L43,0 C50.1797017,-1.31888981e-15 56,5.82029825 56,13 L56,25.25 L56,25.25 C56,25.6642136 55.6642136,26 55.25,26 L43,26 L43,26 C35.8202983,26 30,20.1797017 30,13 L30,13 L30,13 C30,5.82029825 35.8202983,1.31888981e-15 43,0 Z" id="Rectangle" fill="#52B84F"></path>
                                    <path d="M43,30 L55.25,30 L55.25,30 C55.6642136,30 56,30.3357864 56,30.75 L56,43 L56,43 C56,50.1797017 50.1797017,56 43,56 L43,56 L43,56 C35.8202983,56 30,50.1797017 30,43 L30,43 L30,43 C30,35.8202983 35.8202983,30 43,30 Z" id="Rectangle" fill="#52B84F"></path>
                                </g>
                            </g>
                        </g>
                        <g id="logo-12" transform="translate(120.000000, 0.000000)">
                            <g id="logo">
                                <g id="mark">
                                    <path d="M25.125,25.125 L25.125,13 C25.125,6.30354741 19.6964526,0.875 13,0.875 C6.30354741,0.875 0.875,6.30354741 0.875,13 C0.875,19.6964526 6.30354741,25.125 13,25.125 L25.125,25.125 Z" id="Rectangle" stroke="#52B84F" stroke-width="1.75"></path>
                                    <path d="M43,0 L43,0 L43,0 C50.1797017,-1.31888981e-15 56,5.82029825 56,13 L56,25.25 L56,25.25 C56,25.6642136 55.6642136,26 55.25,26 L43,26 L43,26 C35.8202983,26 30,20.1797017 30,13 L30,13 L30,13 C30,5.82029825 35.8202983,1.31888981e-15 43,0 Z" id="Rectangle" fill="#52B84F"></path>
                                    <path d="M43,30 L55.25,30 L55.25,30 C55.6642136,30 56,30.3357864 56,30.75 L56,43 L56,43 C56,50.1797017 50.1797017,56 43,56 L43,56 L43,56 C35.8202983,56 30,50.1797017 30,43 L30,43 L30,43 C30,35.8202983 35.8202983,30 43,30 Z" id="Rectangle" fill="#52B84F"></path>
                                </g>
                            </g>
                        </g>
                        <g id="logo-12" transform="translate(180.000000, 0.000000)">
                            <g id="logo">
                                <g id="mark">
                                    <path d="M25.125,25.125 L25.125,13 C25.125,6.30354741 19.6964526,0.875 13,0.875 C6.30354741,0.875 0.875,6.30354741 0.875,13 C0.875,19.6964526 6.30354741,25.125 13,25.125 L25.125,25.125 Z" id="Rectangle" stroke="#52B84F" stroke-width="1.75"></path>
                                    <path d="M43,0 L43,0 L43,0 C50.1797017,-1.31888981e-15 56,5.82029825 56,13 L56,25.25 L56,25.25 C56,25.6642136 55.6642136,26 55.25,26 L43,26 L43,26 C35.8202983,26 30,20.1797017 30,13 L30,13 L30,13 C30,5.82029825 35.8202983,1.31888981e-15 43,0 Z" id="Rectangle" fill="#52B84F"></path>
                                    <path d="M43,30 L55.25,30 L55.25,30 C55.6642136,30 56,30.3357864 56,30.75 L56,43 L56,43 C56,50.1797017 50.1797017,56 43,56 L43,56 L43,56 C35.8202983,56 30,50.1797017 30,43 L30,43 L30,43 C30,35.8202983 35.8202983,30 43,30 Z" id="Rectangle" fill="#52B84F"></path>
                                </g>
                            </g>
                        </g>
                        <g id="logo-12" transform="translate(120.000000, 60.000000)">
                            <g id="logo">
                                <g id="mark">
                                    <path d="M25.125,25.125 L25.125,13 C25.125,6.30354741 19.6964526,0.875 13,0.875 C6.30354741,0.875 0.875,6.30354741 0.875,13 C0.875,19.6964526 6.30354741,25.125 13,25.125 L25.125,25.125 Z" id="Rectangle" stroke="#52B84F" stroke-width="1.75"></path>
                                    <path d="M43,0 L43,0 L43,0 C50.1797017,-1.31888981e-15 56,5.82029825 56,13 L56,25.25 L56,25.25 C56,25.6642136 55.6642136,26 55.25,26 L43,26 L43,26 C35.8202983,26 30,20.1797017 30,13 L30,13 L30,13 C30,5.82029825 35.8202983,1.31888981e-15 43,0 Z" id="Rectangle" fill="#52B84F"></path>
                                    <path d="M43,30 L55.25,30 L55.25,30 C55.6642136,30 56,30.3357864 56,30.75 L56,43 L56,43 C56,50.1797017 50.1797017,56 43,56 L43,56 L43,56 C35.8202983,56 30,50.1797017 30,43 L30,43 L30,43 C30,35.8202983 35.8202983,30 43,30 Z" id="Rectangle" fill="#52B84F"></path>
                                </g>
                            </g>
                        </g>
                        <g id="logo-12" transform="translate(180.000000, 60.000000)">
                            <g id="logo">
                                <g id="mark">
                                    <path d="M25.125,25.125 L25.125,13 C25.125,6.30354741 19.6964526,0.875 13,0.875 C6.30354741,0.875 0.875,6.30354741 0.875,13 C0.875,19.6964526 6.30354741,25.125 13,25.125 L25.125,25.125 Z" id="Rectangle" stroke="#52B84F" stroke-width="1.75"></path>
                                    <path d="M43,0 L43,0 L43,0 C50.1797017,-1.31888981e-15 56,5.82029825 56,13 L56,25.25 L56,25.25 C56,25.6642136 55.6642136,26 55.25,26 L43,26 L43,26 C35.8202983,26 30,20.1797017 30,13 L30,13 L30,13 C30,5.82029825 35.8202983,1.31888981e-15 43,0 Z" id="Rectangle" fill="#52B84F"></path>
                                    <path d="M43,30 L55.25,30 L55.25,30 C55.6642136,30 56,30.3357864 56,30.75 L56,43 L56,43 C56,50.1797017 50.1797017,56 43,56 L43,56 L43,56 C35.8202983,56 30,50.1797017 30,43 L30,43 L30,43 C30,35.8202983 35.8202983,30 43,30 Z" id="Rectangle" fill="#52B84F"></path>
                                </g>
                            </g>
                        </g>
                        <g id="logo-12" transform="translate(0.000000, 120.000000)">
                            <g id="logo">
                                <g id="mark">
                                    <path d="M25.125,25.125 L25.125,13 C25.125,6.30354741 19.6964526,0.875 13,0.875 C6.30354741,0.875 0.875,6.30354741 0.875,13 C0.875,19.6964526 6.30354741,25.125 13,25.125 L25.125,25.125 Z" id="Rectangle" stroke="#52B84F" stroke-width="1.75"></path>
                                    <path d="M43,0 L43,0 L43,0 C50.1797017,-1.31888981e-15 56,5.82029825 56,13 L56,25.25 L56,25.25 C56,25.6642136 55.6642136,26 55.25,26 L43,26 L43,26 C35.8202983,26 30,20.1797017 30,13 L30,13 L30,13 C30,5.82029825 35.8202983,1.31888981e-15 43,0 Z" id="Rectangle" fill="#52B84F"></path>
                                    <path d="M43,30 L55.25,30 L55.25,30 C55.6642136,30 56,30.3357864 56,30.75 L56,43 L56,43 C56,50.1797017 50.1797017,56 43,56 L43,56 L43,56 C35.8202983,56 30,50.1797017 30,43 L30,43 L30,43 C30,35.8202983 35.8202983,30 43,30 Z" id="Rectangle" fill="#52B84F"></path>
                                </g>
                            </g>
                        </g>
                        <g id="logo-12" transform="translate(60.000000, 120.000000)">
                            <g id="logo">
                                <g id="mark">
                                    <path d="M25.125,25.125 L25.125,13 C25.125,6.30354741 19.6964526,0.875 13,0.875 C6.30354741,0.875 0.875,6.30354741 0.875,13 C0.875,19.6964526 6.30354741,25.125 13,25.125 L25.125,25.125 Z" id="Rectangle" stroke="#52B84F" stroke-width="1.75"></path>
                                    <path d="M43,0 L43,0 L43,0 C50.1797017,-1.31888981e-15 56,5.82029825 56,13 L56,25.25 L56,25.25 C56,25.6642136 55.6642136,26 55.25,26 L43,26 L43,26 C35.8202983,26 30,20.1797017 30,13 L30,13 L30,13 C30,5.82029825 35.8202983,1.31888981e-15 43,0 Z" id="Rectangle" fill="#52B84F"></path>
                                    <path d="M43,30 L55.25,30 L55.25,30 C55.6642136,30 56,30.3357864 56,30.75 L56,43 L56,43 C56,50.1797017 50.1797017,56 43,56 L43,56 L43,56 C35.8202983,56 30,50.1797017 30,43 L30,43 L30,43 C30,35.8202983 35.8202983,30 43,30 Z" id="Rectangle" fill="#52B84F"></path>
                                </g>
                            </g>
                        </g>
                        <g id="logo-12" transform="translate(0.000000, 180.000000)">
                            <g id="logo">
                                <g id="mark">
                                    <path d="M25.125,25.125 L25.125,13 C25.125,6.30354741 19.6964526,0.875 13,0.875 C6.30354741,0.875 0.875,6.30354741 0.875,13 C0.875,19.6964526 6.30354741,25.125 13,25.125 L25.125,25.125 Z" id="Rectangle" stroke="#52B84F" stroke-width="1.75"></path>
                                    <path d="M43,0 L43,0 L43,0 C50.1797017,-1.31888981e-15 56,5.82029825 56,13 L56,25.25 L56,25.25 C56,25.6642136 55.6642136,26 55.25,26 L43,26 L43,26 C35.8202983,26 30,20.1797017 30,13 L30,13 L30,13 C30,5.82029825 35.8202983,1.31888981e-15 43,0 Z" id="Rectangle" fill="#52B84F"></path>
                                    <path d="M43,30 L55.25,30 L55.25,30 C55.6642136,30 56,30.3357864 56,30.75 L56,43 L56,43 C56,50.1797017 50.1797017,56 43,56 L43,56 L43,56 C35.8202983,56 30,50.1797017 30,43 L30,43 L30,43 C30,35.8202983 35.8202983,30 43,30 Z" id="Rectangle" fill="#52B84F"></path>
                                </g>
                            </g>
                        </g>
                        <g id="logo-12" transform="translate(60.000000, 180.000000)">
                            <g id="logo">
                                <g id="mark">
                                    <path d="M25.125,25.125 L25.125,13 C25.125,6.30354741 19.6964526,0.875 13,0.875 C6.30354741,0.875 0.875,6.30354741 0.875,13 C0.875,19.6964526 6.30354741,25.125 13,25.125 L25.125,25.125 Z" id="Rectangle" stroke="#52B84F" stroke-width="1.75"></path>
                                    <path d="M43,0 L43,0 L43,0 C50.1797017,-1.31888981e-15 56,5.82029825 56,13 L56,25.25 L56,25.25 C56,25.6642136 55.6642136,26 55.25,26 L43,26 L43,26 C35.8202983,26 30,20.1797017 30,13 L30,13 L30,13 C30,5.82029825 35.8202983,1.31888981e-15 43,0 Z" id="Rectangle" fill="#52B84F"></path>
                                    <path d="M43,30 L55.25,30 L55.25,30 C55.6642136,30 56,30.3357864 56,30.75 L56,43 L56,43 C56,50.1797017 50.1797017,56 43,56 L43,56 L43,56 C35.8202983,56 30,50.1797017 30,43 L30,43 L30,43 C30,35.8202983 35.8202983,30 43,30 Z" id="Rectangle" fill="#52B84F"></path>
                                </g>
                            </g>
                        </g>
                        <g id="logo-12" transform="translate(120.000000, 120.000000)">
                            <g id="logo">
                                <g id="mark">
                                    <path d="M25.125,25.125 L25.125,13 C25.125,6.30354741 19.6964526,0.875 13,0.875 C6.30354741,0.875 0.875,6.30354741 0.875,13 C0.875,19.6964526 6.30354741,25.125 13,25.125 L25.125,25.125 Z" id="Rectangle" stroke="#52B84F" stroke-width="1.75"></path>
                                    <path d="M43,0 L43,0 L43,0 C50.1797017,-1.31888981e-15 56,5.82029825 56,13 L56,25.25 L56,25.25 C56,25.6642136 55.6642136,26 55.25,26 L43,26 L43,26 C35.8202983,26 30,20.1797017 30,13 L30,13 L30,13 C30,5.82029825 35.8202983,1.31888981e-15 43,0 Z" id="Rectangle" fill="#52B84F"></path>
                                    <path d="M43,30 L55.25,30 L55.25,30 C55.6642136,30 56,30.3357864 56,30.75 L56,43 L56,43 C56,50.1797017 50.1797017,56 43,56 L43,56 L43,56 C35.8202983,56 30,50.1797017 30,43 L30,43 L30,43 C30,35.8202983 35.8202983,30 43,30 Z" id="Rectangle" fill="#52B84F"></path>
                                </g>
                            </g>
                        </g>
                        <g id="logo-12" transform="translate(180.000000, 120.000000)">
                            <g id="logo">
                                <g id="mark">
                                    <path d="M25.125,25.125 L25.125,13 C25.125,6.30354741 19.6964526,0.875 13,0.875 C6.30354741,0.875 0.875,6.30354741 0.875,13 C0.875,19.6964526 6.30354741,25.125 13,25.125 L25.125,25.125 Z" id="Rectangle" stroke="#52B84F" stroke-width="1.75"></path>
                                    <path d="M43,0 L43,0 L43,0 C50.1797017,-1.31888981e-15 56,5.82029825 56,13 L56,25.25 L56,25.25 C56,25.6642136 55.6642136,26 55.25,26 L43,26 L43,26 C35.8202983,26 30,20.1797017 30,13 L30,13 L30,13 C30,5.82029825 35.8202983,1.31888981e-15 43,0 Z" id="Rectangle" fill="#52B84F"></path>
                                    <path d="M43,30 L55.25,30 L55.25,30 C55.6642136,30 56,30.3357864 56,30.75 L56,43 L56,43 C56,50.1797017 50.1797017,56 43,56 L43,56 L43,56 C35.8202983,56 30,50.1797017 30,43 L30,43 L30,43 C30,35.8202983 35.8202983,30 43,30 Z" id="Rectangle" fill="#52B84F"></path>
                                </g>
                            </g>
                        </g>
                        <g id="logo-12" transform="translate(120.000000, 180.000000)">
                            <g id="logo">
                                <g id="mark">
                                    <path d="M25.125,25.125 L25.125,13 C25.125,6.30354741 19.6964526,0.875 13,0.875 C6.30354741,0.875 0.875,6.30354741 0.875,13 C0.875,19.6964526 6.30354741,25.125 13,25.125 L25.125,25.125 Z" id="Rectangle" stroke="#52B84F" stroke-width="1.75"></path>
                                    <path d="M43,0 L43,0 L43,0 C50.1797017,-1.31888981e-15 56,5.82029825 56,13 L56,25.25 L56,25.25 C56,25.6642136 55.6642136,26 55.25,26 L43,26 L43,26 C35.8202983,26 30,20.1797017 30,13 L30,13 L30,13 C30,5.82029825 35.8202983,1.31888981e-15 43,0 Z" id="Rectangle" fill="#52B84F"></path>
                                    <path d="M43,30 L55.25,30 L55.25,30 C55.6642136,30 56,30.3357864 56,30.75 L56,43 L56,43 C56,50.1797017 50.1797017,56 43,56 L43,56 L43,56 C35.8202983,56 30,50.1797017 30,43 L30,43 L30,43 C30,35.8202983 35.8202983,30 43,30 Z" id="Rectangle" fill="#52B84F"></path>
                                </g>
                            </g>
                        </g>
                        <g id="logo-12" transform="translate(180.000000, 180.000000)">
                            <g id="logo">
                                <g id="mark">
                                    <path d="M25.125,25.125 L25.125,13 C25.125,6.30354741 19.6964526,0.875 13,0.875 C6.30354741,0.875 0.875,6.30354741 0.875,13 C0.875,19.6964526 6.30354741,25.125 13,25.125 L25.125,25.125 Z" id="Rectangle" stroke="#52B84F" stroke-width="1.75"></path>
                                    <path d="M43,0 L43,0 L43,0 C50.1797017,-1.31888981e-15 56,5.82029825 56,13 L56,25.25 L56,25.25 C56,25.6642136 55.6642136,26 55.25,26 L43,26 L43,26 C35.8202983,26 30,20.1797017 30,13 L30,13 L30,13 C30,5.82029825 35.8202983,1.31888981e-15 43,0 Z" id="Rectangle" fill="#52B84F"></path>
                                    <path d="M43,30 L55.25,30 L55.25,30 C55.6642136,30 56,30.3357864 56,30.75 L56,43 L56,43 C56,50.1797017 50.1797017,56 43,56 L43,56 L43,56 C35.8202983,56 30,50.1797017 30,43 L30,43 L30,43 C30,35.8202983 35.8202983,30 43,30 Z" id="Rectangle" fill="#52B84F"></path>
                                </g>
                            </g>
                        </g>
                        <g id="logo-12" transform="translate(240.000000, 0.000000)">
                            <g id="logo">
                                <g id="mark">
                                    <path d="M25.125,25.125 L25.125,13 C25.125,6.30354741 19.6964526,0.875 13,0.875 C6.30354741,0.875 0.875,6.30354741 0.875,13 C0.875,19.6964526 6.30354741,25.125 13,25.125 L25.125,25.125 Z" id="Rectangle" stroke="#52B84F" stroke-width="1.75"></path>
                                    <path d="M43,0 L43,0 L43,0 C50.1797017,-1.31888981e-15 56,5.82029825 56,13 L56,25.25 L56,25.25 C56,25.6642136 55.6642136,26 55.25,26 L43,26 L43,26 C35.8202983,26 30,20.1797017 30,13 L30,13 L30,13 C30,5.82029825 35.8202983,1.31888981e-15 43,0 Z" id="Rectangle" fill="#52B84F"></path>
                                    <path d="M43,30 L55.25,30 L55.25,30 C55.6642136,30 56,30.3357864 56,30.75 L56,43 L56,43 C56,50.1797017 50.1797017,56 43,56 L43,56 L43,56 C35.8202983,56 30,50.1797017 30,43 L30,43 L30,43 C30,35.8202983 35.8202983,30 43,30 Z" id="Rectangle" fill="#52B84F"></path>
                                </g>
                            </g>
                        </g>
                        <g id="logo-12" transform="translate(300.000000, 0.000000)">
                            <g id="logo">
                                <g id="mark">
                                    <path d="M25.125,25.125 L25.125,13 C25.125,6.30354741 19.6964526,0.875 13,0.875 C6.30354741,0.875 0.875,6.30354741 0.875,13 C0.875,19.6964526 6.30354741,25.125 13,25.125 L25.125,25.125 Z" id="Rectangle" stroke="#52B84F" stroke-width="1.75"></path>
                                    <path d="M43,0 L43,0 L43,0 C50.1797017,-1.31888981e-15 56,5.82029825 56,13 L56,25.25 L56,25.25 C56,25.6642136 55.6642136,26 55.25,26 L43,26 L43,26 C35.8202983,26 30,20.1797017 30,13 L30,13 L30,13 C30,5.82029825 35.8202983,1.31888981e-15 43,0 Z" id="Rectangle" fill="#52B84F"></path>
                                    <path d="M43,30 L55.25,30 L55.25,30 C55.6642136,30 56,30.3357864 56,30.75 L56,43 L56,43 C56,50.1797017 50.1797017,56 43,56 L43,56 L43,56 C35.8202983,56 30,50.1797017 30,43 L30,43 L30,43 C30,35.8202983 35.8202983,30 43,30 Z" id="Rectangle" fill="#52B84F"></path>
                                </g>
                            </g>
                        </g>
                        <g id="logo-12" transform="translate(240.000000, 60.000000)">
                            <g id="logo">
                                <g id="mark">
                                    <path d="M25.125,25.125 L25.125,13 C25.125,6.30354741 19.6964526,0.875 13,0.875 C6.30354741,0.875 0.875,6.30354741 0.875,13 C0.875,19.6964526 6.30354741,25.125 13,25.125 L25.125,25.125 Z" id="Rectangle" stroke="#52B84F" stroke-width="1.75"></path>
                                    <path d="M43,0 L43,0 L43,0 C50.1797017,-1.31888981e-15 56,5.82029825 56,13 L56,25.25 L56,25.25 C56,25.6642136 55.6642136,26 55.25,26 L43,26 L43,26 C35.8202983,26 30,20.1797017 30,13 L30,13 L30,13 C30,5.82029825 35.8202983,1.31888981e-15 43,0 Z" id="Rectangle" fill="#52B84F"></path>
                                    <path d="M43,30 L55.25,30 L55.25,30 C55.6642136,30 56,30.3357864 56,30.75 L56,43 L56,43 C56,50.1797017 50.1797017,56 43,56 L43,56 L43,56 C35.8202983,56 30,50.1797017 30,43 L30,43 L30,43 C30,35.8202983 35.8202983,30 43,30 Z" id="Rectangle" fill="#52B84F"></path>
                                </g>
                            </g>
                        </g>
                        <g id="logo-12" transform="translate(300.000000, 60.000000)">
                            <g id="logo">
                                <g id="mark">
                                    <path d="M25.125,25.125 L25.125,13 C25.125,6.30354741 19.6964526,0.875 13,0.875 C6.30354741,0.875 0.875,6.30354741 0.875,13 C0.875,19.6964526 6.30354741,25.125 13,25.125 L25.125,25.125 Z" id="Rectangle" stroke="#52B84F" stroke-width="1.75"></path>
                                    <path d="M43,0 L43,0 L43,0 C50.1797017,-1.31888981e-15 56,5.82029825 56,13 L56,25.25 L56,25.25 C56,25.6642136 55.6642136,26 55.25,26 L43,26 L43,26 C35.8202983,26 30,20.1797017 30,13 L30,13 L30,13 C30,5.82029825 35.8202983,1.31888981e-15 43,0 Z" id="Rectangle" fill="#52B84F"></path>
                                    <path d="M43,30 L55.25,30 L55.25,30 C55.6642136,30 56,30.3357864 56,30.75 L56,43 L56,43 C56,50.1797017 50.1797017,56 43,56 L43,56 L43,56 C35.8202983,56 30,50.1797017 30,43 L30,43 L30,43 C30,35.8202983 35.8202983,30 43,30 Z" id="Rectangle" fill="#52B84F"></path>
                                </g>
                            </g>
                        </g>
                        <g id="logo-12" transform="translate(360.000000, 0.000000)">
                            <g id="logo">
                                <g id="mark">
                                    <path d="M25.125,25.125 L25.125,13 C25.125,6.30354741 19.6964526,0.875 13,0.875 C6.30354741,0.875 0.875,6.30354741 0.875,13 C0.875,19.6964526 6.30354741,25.125 13,25.125 L25.125,25.125 Z" id="Rectangle" stroke="#52B84F" stroke-width="1.75"></path>
                                    <path d="M43,0 L43,0 L43,0 C50.1797017,-1.31888981e-15 56,5.82029825 56,13 L56,25.25 L56,25.25 C56,25.6642136 55.6642136,26 55.25,26 L43,26 L43,26 C35.8202983,26 30,20.1797017 30,13 L30,13 L30,13 C30,5.82029825 35.8202983,1.31888981e-15 43,0 Z" id="Rectangle" fill="#52B84F"></path>
                                    <path d="M43,30 L55.25,30 L55.25,30 C55.6642136,30 56,30.3357864 56,30.75 L56,43 L56,43 C56,50.1797017 50.1797017,56 43,56 L43,56 L43,56 C35.8202983,56 30,50.1797017 30,43 L30,43 L30,43 C30,35.8202983 35.8202983,30 43,30 Z" id="Rectangle" fill="#52B84F"></path>
                                </g>
                            </g>
                        </g>
                        <g id="logo-12" transform="translate(420.000000, 0.000000)">
                            <g id="logo">
                                <g id="mark">
                                    <path d="M25.125,25.125 L25.125,13 C25.125,6.30354741 19.6964526,0.875 13,0.875 C6.30354741,0.875 0.875,6.30354741 0.875,13 C0.875,19.6964526 6.30354741,25.125 13,25.125 L25.125,25.125 Z" id="Rectangle" stroke="#52B84F" stroke-width="1.75"></path>
                                    <path d="M43,0 L43,0 L43,0 C50.1797017,-1.31888981e-15 56,5.82029825 56,13 L56,25.25 L56,25.25 C56,25.6642136 55.6642136,26 55.25,26 L43,26 L43,26 C35.8202983,26 30,20.1797017 30,13 L30,13 L30,13 C30,5.82029825 35.8202983,1.31888981e-15 43,0 Z" id="Rectangle" fill="#52B84F"></path>
                                    <path d="M43,30 L55.25,30 L55.25,30 C55.6642136,30 56,30.3357864 56,30.75 L56,43 L56,43 C56,50.1797017 50.1797017,56 43,56 L43,56 L43,56 C35.8202983,56 30,50.1797017 30,43 L30,43 L30,43 C30,35.8202983 35.8202983,30 43,30 Z" id="Rectangle" fill="#52B84F"></path>
                                </g>
                            </g>
                        </g>
                        <g id="logo-12" transform="translate(360.000000, 60.000000)">
                            <g id="logo">
                                <g id="mark">
                                    <path d="M25.125,25.125 L25.125,13 C25.125,6.30354741 19.6964526,0.875 13,0.875 C6.30354741,0.875 0.875,6.30354741 0.875,13 C0.875,19.6964526 6.30354741,25.125 13,25.125 L25.125,25.125 Z" id="Rectangle" stroke="#52B84F" stroke-width="1.75"></path>
                                    <path d="M43,0 L43,0 L43,0 C50.1797017,-1.31888981e-15 56,5.82029825 56,13 L56,25.25 L56,25.25 C56,25.6642136 55.6642136,26 55.25,26 L43,26 L43,26 C35.8202983,26 30,20.1797017 30,13 L30,13 L30,13 C30,5.82029825 35.8202983,1.31888981e-15 43,0 Z" id="Rectangle" fill="#52B84F"></path>
                                    <path d="M43,30 L55.25,30 L55.25,30 C55.6642136,30 56,30.3357864 56,30.75 L56,43 L56,43 C56,50.1797017 50.1797017,56 43,56 L43,56 L43,56 C35.8202983,56 30,50.1797017 30,43 L30,43 L30,43 C30,35.8202983 35.8202983,30 43,30 Z" id="Rectangle" fill="#52B84F"></path>
                                </g>
                            </g>
                        </g>
                        <g id="logo-12" transform="translate(420.000000, 60.000000)">
                            <g id="logo">
                                <g id="mark">
                                    <path d="M25.125,25.125 L25.125,13 C25.125,6.30354741 19.6964526,0.875 13,0.875 C6.30354741,0.875 0.875,6.30354741 0.875,13 C0.875,19.6964526 6.30354741,25.125 13,25.125 L25.125,25.125 Z" id="Rectangle" stroke="#52B84F" stroke-width="1.75"></path>
                                    <path d="M43,0 L43,0 L43,0 C50.1797017,-1.31888981e-15 56,5.82029825 56,13 L56,25.25 L56,25.25 C56,25.6642136 55.6642136,26 55.25,26 L43,26 L43,26 C35.8202983,26 30,20.1797017 30,13 L30,13 L30,13 C30,5.82029825 35.8202983,1.31888981e-15 43,0 Z" id="Rectangle" fill="#52B84F"></path>
                                    <path d="M43,30 L55.25,30 L55.25,30 C55.6642136,30 56,30.3357864 56,30.75 L56,43 L56,43 C56,50.1797017 50.1797017,56 43,56 L43,56 L43,56 C35.8202983,56 30,50.1797017 30,43 L30,43 L30,43 C30,35.8202983 35.8202983,30 43,30 Z" id="Rectangle" fill="#52B84F"></path>
                                </g>
                            </g>
                        </g>
                        <g id="logo-12" transform="translate(240.000000, 120.000000)">
                            <g id="logo">
                                <g id="mark">
                                    <path d="M25.125,25.125 L25.125,13 C25.125,6.30354741 19.6964526,0.875 13,0.875 C6.30354741,0.875 0.875,6.30354741 0.875,13 C0.875,19.6964526 6.30354741,25.125 13,25.125 L25.125,25.125 Z" id="Rectangle" stroke="#52B84F" stroke-width="1.75"></path>
                                    <path d="M43,0 L43,0 L43,0 C50.1797017,-1.31888981e-15 56,5.82029825 56,13 L56,25.25 L56,25.25 C56,25.6642136 55.6642136,26 55.25,26 L43,26 L43,26 C35.8202983,26 30,20.1797017 30,13 L30,13 L30,13 C30,5.82029825 35.8202983,1.31888981e-15 43,0 Z" id="Rectangle" fill="#52B84F"></path>
                                    <path d="M43,30 L55.25,30 L55.25,30 C55.6642136,30 56,30.3357864 56,30.75 L56,43 L56,43 C56,50.1797017 50.1797017,56 43,56 L43,56 L43,56 C35.8202983,56 30,50.1797017 30,43 L30,43 L30,43 C30,35.8202983 35.8202983,30 43,30 Z" id="Rectangle" fill="#52B84F"></path>
                                </g>
                            </g>
                        </g>
                        <g id="logo-12" transform="translate(300.000000, 120.000000)">
                            <g id="logo">
                                <g id="mark">
                                    <path d="M25.125,25.125 L25.125,13 C25.125,6.30354741 19.6964526,0.875 13,0.875 C6.30354741,0.875 0.875,6.30354741 0.875,13 C0.875,19.6964526 6.30354741,25.125 13,25.125 L25.125,25.125 Z" id="Rectangle" stroke="#52B84F" stroke-width="1.75"></path>
                                    <path d="M43,0 L43,0 L43,0 C50.1797017,-1.31888981e-15 56,5.82029825 56,13 L56,25.25 L56,25.25 C56,25.6642136 55.6642136,26 55.25,26 L43,26 L43,26 C35.8202983,26 30,20.1797017 30,13 L30,13 L30,13 C30,5.82029825 35.8202983,1.31888981e-15 43,0 Z" id="Rectangle" fill="#52B84F"></path>
                                    <path d="M43,30 L55.25,30 L55.25,30 C55.6642136,30 56,30.3357864 56,30.75 L56,43 L56,43 C56,50.1797017 50.1797017,56 43,56 L43,56 L43,56 C35.8202983,56 30,50.1797017 30,43 L30,43 L30,43 C30,35.8202983 35.8202983,30 43,30 Z" id="Rectangle" fill="#52B84F"></path>
                                </g>
                            </g>
                        </g>
                        <g id="logo-12" transform="translate(240.000000, 180.000000)">
                            <g id="logo">
                                <g id="mark">
                                    <path d="M25.125,25.125 L25.125,13 C25.125,6.30354741 19.6964526,0.875 13,0.875 C6.30354741,0.875 0.875,6.30354741 0.875,13 C0.875,19.6964526 6.30354741,25.125 13,25.125 L25.125,25.125 Z" id="Rectangle" stroke="#52B84F" stroke-width="1.75"></path>
                                    <path d="M43,0 L43,0 L43,0 C50.1797017,-1.31888981e-15 56,5.82029825 56,13 L56,25.25 L56,25.25 C56,25.6642136 55.6642136,26 55.25,26 L43,26 L43,26 C35.8202983,26 30,20.1797017 30,13 L30,13 L30,13 C30,5.82029825 35.8202983,1.31888981e-15 43,0 Z" id="Rectangle" fill="#52B84F"></path>
                                    <path d="M43,30 L55.25,30 L55.25,30 C55.6642136,30 56,30.3357864 56,30.75 L56,43 L56,43 C56,50.1797017 50.1797017,56 43,56 L43,56 L43,56 C35.8202983,56 30,50.1797017 30,43 L30,43 L30,43 C30,35.8202983 35.8202983,30 43,30 Z" id="Rectangle" fill="#52B84F"></path>
                                </g>
                            </g>
                        </g>
                        <g id="logo-12" transform="translate(300.000000, 180.000000)">
                            <g id="logo">
                                <g id="mark">
                                    <path d="M25.125,25.125 L25.125,13 C25.125,6.30354741 19.6964526,0.875 13,0.875 C6.30354741,0.875 0.875,6.30354741 0.875,13 C0.875,19.6964526 6.30354741,25.125 13,25.125 L25.125,25.125 Z" id="Rectangle" stroke="#52B84F" stroke-width="1.75"></path>
                                    <path d="M43,0 L43,0 L43,0 C50.1797017,-1.31888981e-15 56,5.82029825 56,13 L56,25.25 L56,25.25 C56,25.6642136 55.6642136,26 55.25,26 L43,26 L43,26 C35.8202983,26 30,20.1797017 30,13 L30,13 L30,13 C30,5.82029825 35.8202983,1.31888981e-15 43,0 Z" id="Rectangle" fill="#52B84F"></path>
                                    <path d="M43,30 L55.25,30 L55.25,30 C55.6642136,30 56,30.3357864 56,30.75 L56,43 L56,43 C56,50.1797017 50.1797017,56 43,56 L43,56 L43,56 C35.8202983,56 30,50.1797017 30,43 L30,43 L30,43 C30,35.8202983 35.8202983,30 43,30 Z" id="Rectangle" fill="#52B84F"></path>
                                </g>
                            </g>
                        </g>
                        <g id="logo-12" transform="translate(360.000000, 120.000000)">
                            <g id="logo">
                                <g id="mark">
                                    <path d="M25.125,25.125 L25.125,13 C25.125,6.30354741 19.6964526,0.875 13,0.875 C6.30354741,0.875 0.875,6.30354741 0.875,13 C0.875,19.6964526 6.30354741,25.125 13,25.125 L25.125,25.125 Z" id="Rectangle" stroke="#52B84F" stroke-width="1.75"></path>
                                    <path d="M43,0 L43,0 L43,0 C50.1797017,-1.31888981e-15 56,5.82029825 56,13 L56,25.25 L56,25.25 C56,25.6642136 55.6642136,26 55.25,26 L43,26 L43,26 C35.8202983,26 30,20.1797017 30,13 L30,13 L30,13 C30,5.82029825 35.8202983,1.31888981e-15 43,0 Z" id="Rectangle" fill="#52B84F"></path>
                                    <path d="M43,30 L55.25,30 L55.25,30 C55.6642136,30 56,30.3357864 56,30.75 L56,43 L56,43 C56,50.1797017 50.1797017,56 43,56 L43,56 L43,56 C35.8202983,56 30,50.1797017 30,43 L30,43 L30,43 C30,35.8202983 35.8202983,30 43,30 Z" id="Rectangle" fill="#52B84F"></path>
                                </g>
                            </g>
                        </g>
                        <g id="logo-12" transform="translate(420.000000, 120.000000)">
                            <g id="logo">
                                <g id="mark">
                                    <path d="M25.125,25.125 L25.125,13 C25.125,6.30354741 19.6964526,0.875 13,0.875 C6.30354741,0.875 0.875,6.30354741 0.875,13 C0.875,19.6964526 6.30354741,25.125 13,25.125 L25.125,25.125 Z" id="Rectangle" stroke="#52B84F" stroke-width="1.75"></path>
                                    <path d="M43,0 L43,0 L43,0 C50.1797017,-1.31888981e-15 56,5.82029825 56,13 L56,25.25 L56,25.25 C56,25.6642136 55.6642136,26 55.25,26 L43,26 L43,26 C35.8202983,26 30,20.1797017 30,13 L30,13 L30,13 C30,5.82029825 35.8202983,1.31888981e-15 43,0 Z" id="Rectangle" fill="#52B84F"></path>
                                    <path d="M43,30 L55.25,30 L55.25,30 C55.6642136,30 56,30.3357864 56,30.75 L56,43 L56,43 C56,50.1797017 50.1797017,56 43,56 L43,56 L43,56 C35.8202983,56 30,50.1797017 30,43 L30,43 L30,43 C30,35.8202983 35.8202983,30 43,30 Z" id="Rectangle" fill="#52B84F"></path>
                                </g>
                            </g>
                        </g>
                        <g id="logo-12" transform="translate(360.000000, 180.000000)">
                            <g id="logo">
                                <g id="mark">
                                    <path d="M25.125,25.125 L25.125,13 C25.125,6.30354741 19.6964526,0.875 13,0.875 C6.30354741,0.875 0.875,6.30354741 0.875,13 C0.875,19.6964526 6.30354741,25.125 13,25.125 L25.125,25.125 Z" id="Rectangle" stroke="#52B84F" stroke-width="1.75"></path>
                                    <path d="M43,0 L43,0 L43,0 C50.1797017,-1.31888981e-15 56,5.82029825 56,13 L56,25.25 L56,25.25 C56,25.6642136 55.6642136,26 55.25,26 L43,26 L43,26 C35.8202983,26 30,20.1797017 30,13 L30,13 L30,13 C30,5.82029825 35.8202983,1.31888981e-15 43,0 Z" id="Rectangle" fill="#52B84F"></path>
                                    <path d="M43,30 L55.25,30 L55.25,30 C55.6642136,30 56,30.3357864 56,30.75 L56,43 L56,43 C56,50.1797017 50.1797017,56 43,56 L43,56 L43,56 C35.8202983,56 30,50.1797017 30,43 L30,43 L30,43 C30,35.8202983 35.8202983,30 43,30 Z" id="Rectangle" fill="#52B84F"></path>
                                </g>
                            </g>
                        </g>
                        <g id="logo-12" transform="translate(420.000000, 180.000000)">
                            <g id="logo">
                                <g id="mark">
                                    <path d="M25.125,25.125 L25.125,13 C25.125,6.30354741 19.6964526,0.875 13,0.875 C6.30354741,0.875 0.875,6.30354741 0.875,13 C0.875,19.6964526 6.30354741,25.125 13,25.125 L25.125,25.125 Z" id="Rectangle" stroke="#52B84F" stroke-width="1.75"></path>
                                    <path d="M43,0 L43,0 L43,0 C50.1797017,-1.31888981e-15 56,5.82029825 56,13 L56,25.25 L56,25.25 C56,25.6642136 55.6642136,26 55.25,26 L43,26 L43,26 C35.8202983,26 30,20.1797017 30,13 L30,13 L30,13 C30,5.82029825 35.8202983,1.31888981e-15 43,0 Z" id="Rectangle" fill="#52B84F"></path>
                                    <path d="M43,30 L55.25,30 L55.25,30 C55.6642136,30 56,30.3357864 56,30.75 L56,43 L56,43 C56,50.1797017 50.1797017,56 43,56 L43,56 L43,56 C35.8202983,56 30,50.1797017 30,43 L30,43 L30,43 C30,35.8202983 35.8202983,30 43,30 Z" id="Rectangle" fill="#52B84F"></path>
                                </g>
                            </g>
                        </g>
                        <g id="logo-12" transform="translate(0.000000, 240.000000)">
                            <g id="logo">
                                <g id="mark">
                                    <path d="M25.125,25.125 L25.125,13 C25.125,6.30354741 19.6964526,0.875 13,0.875 C6.30354741,0.875 0.875,6.30354741 0.875,13 C0.875,19.6964526 6.30354741,25.125 13,25.125 L25.125,25.125 Z" id="Rectangle" stroke="#52B84F" stroke-width="1.75"></path>
                                    <path d="M43,0 L43,0 L43,0 C50.1797017,-1.31888981e-15 56,5.82029825 56,13 L56,25.25 L56,25.25 C56,25.6642136 55.6642136,26 55.25,26 L43,26 L43,26 C35.8202983,26 30,20.1797017 30,13 L30,13 L30,13 C30,5.82029825 35.8202983,1.31888981e-15 43,0 Z" id="Rectangle" fill="#52B84F"></path>
                                    <path d="M43,30 L55.25,30 L55.25,30 C55.6642136,30 56,30.3357864 56,30.75 L56,43 L56,43 C56,50.1797017 50.1797017,56 43,56 L43,56 L43,56 C35.8202983,56 30,50.1797017 30,43 L30,43 L30,43 C30,35.8202983 35.8202983,30 43,30 Z" id="Rectangle" fill="#52B84F"></path>
                                </g>
                            </g>
                        </g>
                        <g id="logo-12" transform="translate(60.000000, 240.000000)">
                            <g id="logo">
                                <g id="mark">
                                    <path d="M25.125,25.125 L25.125,13 C25.125,6.30354741 19.6964526,0.875 13,0.875 C6.30354741,0.875 0.875,6.30354741 0.875,13 C0.875,19.6964526 6.30354741,25.125 13,25.125 L25.125,25.125 Z" id="Rectangle" stroke="#52B84F" stroke-width="1.75"></path>
                                    <path d="M43,0 L43,0 L43,0 C50.1797017,-1.31888981e-15 56,5.82029825 56,13 L56,25.25 L56,25.25 C56,25.6642136 55.6642136,26 55.25,26 L43,26 L43,26 C35.8202983,26 30,20.1797017 30,13 L30,13 L30,13 C30,5.82029825 35.8202983,1.31888981e-15 43,0 Z" id="Rectangle" fill="#52B84F"></path>
                                    <path d="M43,30 L55.25,30 L55.25,30 C55.6642136,30 56,30.3357864 56,30.75 L56,43 L56,43 C56,50.1797017 50.1797017,56 43,56 L43,56 L43,56 C35.8202983,56 30,50.1797017 30,43 L30,43 L30,43 C30,35.8202983 35.8202983,30 43,30 Z" id="Rectangle" fill="#52B84F"></path>
                                </g>
                            </g>
                        </g>
                        <g id="logo-12" transform="translate(0.000000, 300.000000)">
                            <g id="logo">
                                <g id="mark">
                                    <path d="M25.125,25.125 L25.125,13 C25.125,6.30354741 19.6964526,0.875 13,0.875 C6.30354741,0.875 0.875,6.30354741 0.875,13 C0.875,19.6964526 6.30354741,25.125 13,25.125 L25.125,25.125 Z" id="Rectangle" stroke="#52B84F" stroke-width="1.75"></path>
                                    <path d="M43,0 L43,0 L43,0 C50.1797017,-1.31888981e-15 56,5.82029825 56,13 L56,25.25 L56,25.25 C56,25.6642136 55.6642136,26 55.25,26 L43,26 L43,26 C35.8202983,26 30,20.1797017 30,13 L30,13 L30,13 C30,5.82029825 35.8202983,1.31888981e-15 43,0 Z" id="Rectangle" fill="#52B84F"></path>
                                    <path d="M43,30 L55.25,30 L55.25,30 C55.6642136,30 56,30.3357864 56,30.75 L56,43 L56,43 C56,50.1797017 50.1797017,56 43,56 L43,56 L43,56 C35.8202983,56 30,50.1797017 30,43 L30,43 L30,43 C30,35.8202983 35.8202983,30 43,30 Z" id="Rectangle" fill="#52B84F"></path>
                                </g>
                            </g>
                        </g>
                        <g id="logo-12" transform="translate(60.000000, 300.000000)">
                            <g id="logo">
                                <g id="mark">
                                    <path d="M25.125,25.125 L25.125,13 C25.125,6.30354741 19.6964526,0.875 13,0.875 C6.30354741,0.875 0.875,6.30354741 0.875,13 C0.875,19.6964526 6.30354741,25.125 13,25.125 L25.125,25.125 Z" id="Rectangle" stroke="#52B84F" stroke-width="1.75"></path>
                                    <path d="M43,0 L43,0 L43,0 C50.1797017,-1.31888981e-15 56,5.82029825 56,13 L56,25.25 L56,25.25 C56,25.6642136 55.6642136,26 55.25,26 L43,26 L43,26 C35.8202983,26 30,20.1797017 30,13 L30,13 L30,13 C30,5.82029825 35.8202983,1.31888981e-15 43,0 Z" id="Rectangle" fill="#52B84F"></path>
                                    <path d="M43,30 L55.25,30 L55.25,30 C55.6642136,30 56,30.3357864 56,30.75 L56,43 L56,43 C56,50.1797017 50.1797017,56 43,56 L43,56 L43,56 C35.8202983,56 30,50.1797017 30,43 L30,43 L30,43 C30,35.8202983 35.8202983,30 43,30 Z" id="Rectangle" fill="#52B84F"></path>
                                </g>
                            </g>
                        </g>
                        <g id="logo-12" transform="translate(120.000000, 240.000000)">
                            <g id="logo">
                                <g id="mark">
                                    <path d="M25.125,25.125 L25.125,13 C25.125,6.30354741 19.6964526,0.875 13,0.875 C6.30354741,0.875 0.875,6.30354741 0.875,13 C0.875,19.6964526 6.30354741,25.125 13,25.125 L25.125,25.125 Z" id="Rectangle" stroke="#52B84F" stroke-width="1.75"></path>
                                    <path d="M43,0 L43,0 L43,0 C50.1797017,-1.31888981e-15 56,5.82029825 56,13 L56,25.25 L56,25.25 C56,25.6642136 55.6642136,26 55.25,26 L43,26 L43,26 C35.8202983,26 30,20.1797017 30,13 L30,13 L30,13 C30,5.82029825 35.8202983,1.31888981e-15 43,0 Z" id="Rectangle" fill="#52B84F"></path>
                                    <path d="M43,30 L55.25,30 L55.25,30 C55.6642136,30 56,30.3357864 56,30.75 L56,43 L56,43 C56,50.1797017 50.1797017,56 43,56 L43,56 L43,56 C35.8202983,56 30,50.1797017 30,43 L30,43 L30,43 C30,35.8202983 35.8202983,30 43,30 Z" id="Rectangle" fill="#52B84F"></path>
                                </g>
                            </g>
                        </g>
                        <g id="logo-12" transform="translate(180.000000, 240.000000)">
                            <g id="logo">
                                <g id="mark">
                                    <path d="M25.125,25.125 L25.125,13 C25.125,6.30354741 19.6964526,0.875 13,0.875 C6.30354741,0.875 0.875,6.30354741 0.875,13 C0.875,19.6964526 6.30354741,25.125 13,25.125 L25.125,25.125 Z" id="Rectangle" stroke="#52B84F" stroke-width="1.75"></path>
                                    <path d="M43,0 L43,0 L43,0 C50.1797017,-1.31888981e-15 56,5.82029825 56,13 L56,25.25 L56,25.25 C56,25.6642136 55.6642136,26 55.25,26 L43,26 L43,26 C35.8202983,26 30,20.1797017 30,13 L30,13 L30,13 C30,5.82029825 35.8202983,1.31888981e-15 43,0 Z" id="Rectangle" fill="#52B84F"></path>
                                    <path d="M43,30 L55.25,30 L55.25,30 C55.6642136,30 56,30.3357864 56,30.75 L56,43 L56,43 C56,50.1797017 50.1797017,56 43,56 L43,56 L43,56 C35.8202983,56 30,50.1797017 30,43 L30,43 L30,43 C30,35.8202983 35.8202983,30 43,30 Z" id="Rectangle" fill="#52B84F"></path>
                                </g>
                            </g>
                        </g>
                        <g id="logo-12" transform="translate(120.000000, 300.000000)">
                            <g id="logo">
                                <g id="mark">
                                    <path d="M25.125,25.125 L25.125,13 C25.125,6.30354741 19.6964526,0.875 13,0.875 C6.30354741,0.875 0.875,6.30354741 0.875,13 C0.875,19.6964526 6.30354741,25.125 13,25.125 L25.125,25.125 Z" id="Rectangle" stroke="#52B84F" stroke-width="1.75"></path>
                                    <path d="M43,0 L43,0 L43,0 C50.1797017,-1.31888981e-15 56,5.82029825 56,13 L56,25.25 L56,25.25 C56,25.6642136 55.6642136,26 55.25,26 L43,26 L43,26 C35.8202983,26 30,20.1797017 30,13 L30,13 L30,13 C30,5.82029825 35.8202983,1.31888981e-15 43,0 Z" id="Rectangle" fill="#52B84F"></path>
                                    <path d="M43,30 L55.25,30 L55.25,30 C55.6642136,30 56,30.3357864 56,30.75 L56,43 L56,43 C56,50.1797017 50.1797017,56 43,56 L43,56 L43,56 C35.8202983,56 30,50.1797017 30,43 L30,43 L30,43 C30,35.8202983 35.8202983,30 43,30 Z" id="Rectangle" fill="#52B84F"></path>
                                </g>
                            </g>
                        </g>
                        <g id="logo-12" transform="translate(180.000000, 300.000000)">
                            <g id="logo">
                                <g id="mark">
                                    <path d="M25.125,25.125 L25.125,13 C25.125,6.30354741 19.6964526,0.875 13,0.875 C6.30354741,0.875 0.875,6.30354741 0.875,13 C0.875,19.6964526 6.30354741,25.125 13,25.125 L25.125,25.125 Z" id="Rectangle" stroke="#52B84F" stroke-width="1.75"></path>
                                    <path d="M43,0 L43,0 L43,0 C50.1797017,-1.31888981e-15 56,5.82029825 56,13 L56,25.25 L56,25.25 C56,25.6642136 55.6642136,26 55.25,26 L43,26 L43,26 C35.8202983,26 30,20.1797017 30,13 L30,13 L30,13 C30,5.82029825 35.8202983,1.31888981e-15 43,0 Z" id="Rectangle" fill="#52B84F"></path>
                                    <path d="M43,30 L55.25,30 L55.25,30 C55.6642136,30 56,30.3357864 56,30.75 L56,43 L56,43 C56,50.1797017 50.1797017,56 43,56 L43,56 L43,56 C35.8202983,56 30,50.1797017 30,43 L30,43 L30,43 C30,35.8202983 35.8202983,30 43,30 Z" id="Rectangle" fill="#52B84F"></path>
                                </g>
                            </g>
                        </g>
                        <g id="logo-12" transform="translate(0.000000, 360.000000)">
                            <g id="logo">
                                <g id="mark">
                                    <path d="M25.125,25.125 L25.125,13 C25.125,6.30354741 19.6964526,0.875 13,0.875 C6.30354741,0.875 0.875,6.30354741 0.875,13 C0.875,19.6964526 6.30354741,25.125 13,25.125 L25.125,25.125 Z" id="Rectangle" stroke="#52B84F" stroke-width="1.75"></path>
                                    <path d="M43,0 L43,0 L43,0 C50.1797017,-1.31888981e-15 56,5.82029825 56,13 L56,25.25 L56,25.25 C56,25.6642136 55.6642136,26 55.25,26 L43,26 L43,26 C35.8202983,26 30,20.1797017 30,13 L30,13 L30,13 C30,5.82029825 35.8202983,1.31888981e-15 43,0 Z" id="Rectangle" fill="#52B84F"></path>
                                    <path d="M43,30 L55.25,30 L55.25,30 C55.6642136,30 56,30.3357864 56,30.75 L56,43 L56,43 C56,50.1797017 50.1797017,56 43,56 L43,56 L43,56 C35.8202983,56 30,50.1797017 30,43 L30,43 L30,43 C30,35.8202983 35.8202983,30 43,30 Z" id="Rectangle" fill="#52B84F"></path>
                                </g>
                            </g>
                        </g>
                        <g id="logo-12" transform="translate(60.000000, 360.000000)">
                            <g id="logo">
                                <g id="mark">
                                    <path d="M25.125,25.125 L25.125,13 C25.125,6.30354741 19.6964526,0.875 13,0.875 C6.30354741,0.875 0.875,6.30354741 0.875,13 C0.875,19.6964526 6.30354741,25.125 13,25.125 L25.125,25.125 Z" id="Rectangle" stroke="#52B84F" stroke-width="1.75"></path>
                                    <path d="M43,0 L43,0 L43,0 C50.1797017,-1.31888981e-15 56,5.82029825 56,13 L56,25.25 L56,25.25 C56,25.6642136 55.6642136,26 55.25,26 L43,26 L43,26 C35.8202983,26 30,20.1797017 30,13 L30,13 L30,13 C30,5.82029825 35.8202983,1.31888981e-15 43,0 Z" id="Rectangle" fill="#52B84F"></path>
                                    <path d="M43,30 L55.25,30 L55.25,30 C55.6642136,30 56,30.3357864 56,30.75 L56,43 L56,43 C56,50.1797017 50.1797017,56 43,56 L43,56 L43,56 C35.8202983,56 30,50.1797017 30,43 L30,43 L30,43 C30,35.8202983 35.8202983,30 43,30 Z" id="Rectangle" fill="#52B84F"></path>
                                </g>
                            </g>
                        </g>
                        <g id="logo-12" transform="translate(0.000000, 420.000000)">
                            <g id="logo">
                                <g id="mark">
                                    <path d="M25.125,25.125 L25.125,13 C25.125,6.30354741 19.6964526,0.875 13,0.875 C6.30354741,0.875 0.875,6.30354741 0.875,13 C0.875,19.6964526 6.30354741,25.125 13,25.125 L25.125,25.125 Z" id="Rectangle" stroke="#52B84F" stroke-width="1.75"></path>
                                    <path d="M43,0 L43,0 L43,0 C50.1797017,-1.31888981e-15 56,5.82029825 56,13 L56,25.25 L56,25.25 C56,25.6642136 55.6642136,26 55.25,26 L43,26 L43,26 C35.8202983,26 30,20.1797017 30,13 L30,13 L30,13 C30,5.82029825 35.8202983,1.31888981e-15 43,0 Z" id="Rectangle" fill="#52B84F"></path>
                                    <path d="M43,30 L55.25,30 L55.25,30 C55.6642136,30 56,30.3357864 56,30.75 L56,43 L56,43 C56,50.1797017 50.1797017,56 43,56 L43,56 L43,56 C35.8202983,56 30,50.1797017 30,43 L30,43 L30,43 C30,35.8202983 35.8202983,30 43,30 Z" id="Rectangle" fill="#52B84F"></path>
                                </g>
                            </g>
                        </g>
                        <g id="logo-12" transform="translate(60.000000, 420.000000)">
                            <g id="logo">
                                <g id="mark">
                                    <path d="M25.125,25.125 L25.125,13 C25.125,6.30354741 19.6964526,0.875 13,0.875 C6.30354741,0.875 0.875,6.30354741 0.875,13 C0.875,19.6964526 6.30354741,25.125 13,25.125 L25.125,25.125 Z" id="Rectangle" stroke="#52B84F" stroke-width="1.75"></path>
                                    <path d="M43,0 L43,0 L43,0 C50.1797017,-1.31888981e-15 56,5.82029825 56,13 L56,25.25 L56,25.25 C56,25.6642136 55.6642136,26 55.25,26 L43,26 L43,26 C35.8202983,26 30,20.1797017 30,13 L30,13 L30,13 C30,5.82029825 35.8202983,1.31888981e-15 43,0 Z" id="Rectangle" fill="#52B84F"></path>
                                    <path d="M43,30 L55.25,30 L55.25,30 C55.6642136,30 56,30.3357864 56,30.75 L56,43 L56,43 C56,50.1797017 50.1797017,56 43,56 L43,56 L43,56 C35.8202983,56 30,50.1797017 30,43 L30,43 L30,43 C30,35.8202983 35.8202983,30 43,30 Z" id="Rectangle" fill="#52B84F"></path>
                                </g>
                            </g>
                        </g>
                        <g id="logo-12" transform="translate(120.000000, 360.000000)">
                            <g id="logo">
                                <g id="mark">
                                    <path d="M25.125,25.125 L25.125,13 C25.125,6.30354741 19.6964526,0.875 13,0.875 C6.30354741,0.875 0.875,6.30354741 0.875,13 C0.875,19.6964526 6.30354741,25.125 13,25.125 L25.125,25.125 Z" id="Rectangle" stroke="#52B84F" stroke-width="1.75"></path>
                                    <path d="M43,0 L43,0 L43,0 C50.1797017,-1.31888981e-15 56,5.82029825 56,13 L56,25.25 L56,25.25 C56,25.6642136 55.6642136,26 55.25,26 L43,26 L43,26 C35.8202983,26 30,20.1797017 30,13 L30,13 L30,13 C30,5.82029825 35.8202983,1.31888981e-15 43,0 Z" id="Rectangle" fill="#52B84F"></path>
                                    <path d="M43,30 L55.25,30 L55.25,30 C55.6642136,30 56,30.3357864 56,30.75 L56,43 L56,43 C56,50.1797017 50.1797017,56 43,56 L43,56 L43,56 C35.8202983,56 30,50.1797017 30,43 L30,43 L30,43 C30,35.8202983 35.8202983,30 43,30 Z" id="Rectangle" fill="#52B84F"></path>
                                </g>
                            </g>
                        </g>
                        <g id="logo-12" transform="translate(180.000000, 360.000000)">
                            <g id="logo">
                                <g id="mark">
                                    <path d="M25.125,25.125 L25.125,13 C25.125,6.30354741 19.6964526,0.875 13,0.875 C6.30354741,0.875 0.875,6.30354741 0.875,13 C0.875,19.6964526 6.30354741,25.125 13,25.125 L25.125,25.125 Z" id="Rectangle" stroke="#52B84F" stroke-width="1.75"></path>
                                    <path d="M43,0 L43,0 L43,0 C50.1797017,-1.31888981e-15 56,5.82029825 56,13 L56,25.25 L56,25.25 C56,25.6642136 55.6642136,26 55.25,26 L43,26 L43,26 C35.8202983,26 30,20.1797017 30,13 L30,13 L30,13 C30,5.82029825 35.8202983,1.31888981e-15 43,0 Z" id="Rectangle" fill="#52B84F"></path>
                                    <path d="M43,30 L55.25,30 L55.25,30 C55.6642136,30 56,30.3357864 56,30.75 L56,43 L56,43 C56,50.1797017 50.1797017,56 43,56 L43,56 L43,56 C35.8202983,56 30,50.1797017 30,43 L30,43 L30,43 C30,35.8202983 35.8202983,30 43,30 Z" id="Rectangle" fill="#52B84F"></path>
                                </g>
                            </g>
                        </g>
                        <g id="logo-12" transform="translate(120.000000, 420.000000)">
                            <g id="logo">
                                <g id="mark">
                                    <path d="M25.125,25.125 L25.125,13 C25.125,6.30354741 19.6964526,0.875 13,0.875 C6.30354741,0.875 0.875,6.30354741 0.875,13 C0.875,19.6964526 6.30354741,25.125 13,25.125 L25.125,25.125 Z" id="Rectangle" stroke="#52B84F" stroke-width="1.75"></path>
                                    <path d="M43,0 L43,0 L43,0 C50.1797017,-1.31888981e-15 56,5.82029825 56,13 L56,25.25 L56,25.25 C56,25.6642136 55.6642136,26 55.25,26 L43,26 L43,26 C35.8202983,26 30,20.1797017 30,13 L30,13 L30,13 C30,5.82029825 35.8202983,1.31888981e-15 43,0 Z" id="Rectangle" fill="#52B84F"></path>
                                    <path d="M43,30 L55.25,30 L55.25,30 C55.6642136,30 56,30.3357864 56,30.75 L56,43 L56,43 C56,50.1797017 50.1797017,56 43,56 L43,56 L43,56 C35.8202983,56 30,50.1797017 30,43 L30,43 L30,43 C30,35.8202983 35.8202983,30 43,30 Z" id="Rectangle" fill="#52B84F"></path>
                                </g>
                            </g>
                        </g>
                        <g id="logo-12" transform="translate(180.000000, 420.000000)">
                            <g id="logo">
                                <g id="mark">
                                    <path d="M25.125,25.125 L25.125,13 C25.125,6.30354741 19.6964526,0.875 13,0.875 C6.30354741,0.875 0.875,6.30354741 0.875,13 C0.875,19.6964526 6.30354741,25.125 13,25.125 L25.125,25.125 Z" id="Rectangle" stroke="#52B84F" stroke-width="1.75"></path>
                                    <path d="M43,0 L43,0 L43,0 C50.1797017,-1.31888981e-15 56,5.82029825 56,13 L56,25.25 L56,25.25 C56,25.6642136 55.6642136,26 55.25,26 L43,26 L43,26 C35.8202983,26 30,20.1797017 30,13 L30,13 L30,13 C30,5.82029825 35.8202983,1.31888981e-15 43,0 Z" id="Rectangle" fill="#52B84F"></path>
                                    <path d="M43,30 L55.25,30 L55.25,30 C55.6642136,30 56,30.3357864 56,30.75 L56,43 L56,43 C56,50.1797017 50.1797017,56 43,56 L43,56 L43,56 C35.8202983,56 30,50.1797017 30,43 L30,43 L30,43 C30,35.8202983 35.8202983,30 43,30 Z" id="Rectangle" fill="#52B84F"></path>
                                </g>
                            </g>
                        </g>
                        <g id="logo-12" transform="translate(240.000000, 240.000000)">
                            <g id="logo">
                                <g id="mark">
                                    <path d="M25.125,25.125 L25.125,13 C25.125,6.30354741 19.6964526,0.875 13,0.875 C6.30354741,0.875 0.875,6.30354741 0.875,13 C0.875,19.6964526 6.30354741,25.125 13,25.125 L25.125,25.125 Z" id="Rectangle" stroke="#52B84F" stroke-width="1.75"></path>
                                    <path d="M43,0 L43,0 L43,0 C50.1797017,-1.31888981e-15 56,5.82029825 56,13 L56,25.25 L56,25.25 C56,25.6642136 55.6642136,26 55.25,26 L43,26 L43,26 C35.8202983,26 30,20.1797017 30,13 L30,13 L30,13 C30,5.82029825 35.8202983,1.31888981e-15 43,0 Z" id="Rectangle" fill="#52B84F"></path>
                                    <path d="M43,30 L55.25,30 L55.25,30 C55.6642136,30 56,30.3357864 56,30.75 L56,43 L56,43 C56,50.1797017 50.1797017,56 43,56 L43,56 L43,56 C35.8202983,56 30,50.1797017 30,43 L30,43 L30,43 C30,35.8202983 35.8202983,30 43,30 Z" id="Rectangle" fill="#52B84F"></path>
                                </g>
                            </g>
                        </g>
                        <g id="logo-12" transform="translate(300.000000, 240.000000)">
                            <g id="logo">
                                <g id="mark">
                                    <path d="M25.125,25.125 L25.125,13 C25.125,6.30354741 19.6964526,0.875 13,0.875 C6.30354741,0.875 0.875,6.30354741 0.875,13 C0.875,19.6964526 6.30354741,25.125 13,25.125 L25.125,25.125 Z" id="Rectangle" stroke="#52B84F" stroke-width="1.75"></path>
                                    <path d="M43,0 L43,0 L43,0 C50.1797017,-1.31888981e-15 56,5.82029825 56,13 L56,25.25 L56,25.25 C56,25.6642136 55.6642136,26 55.25,26 L43,26 L43,26 C35.8202983,26 30,20.1797017 30,13 L30,13 L30,13 C30,5.82029825 35.8202983,1.31888981e-15 43,0 Z" id="Rectangle" fill="#52B84F"></path>
                                    <path d="M43,30 L55.25,30 L55.25,30 C55.6642136,30 56,30.3357864 56,30.75 L56,43 L56,43 C56,50.1797017 50.1797017,56 43,56 L43,56 L43,56 C35.8202983,56 30,50.1797017 30,43 L30,43 L30,43 C30,35.8202983 35.8202983,30 43,30 Z" id="Rectangle" fill="#52B84F"></path>
                                </g>
                            </g>
                        </g>
                        <g id="logo-12" transform="translate(240.000000, 300.000000)">
                            <g id="logo">
                                <g id="mark">
                                    <path d="M25.125,25.125 L25.125,13 C25.125,6.30354741 19.6964526,0.875 13,0.875 C6.30354741,0.875 0.875,6.30354741 0.875,13 C0.875,19.6964526 6.30354741,25.125 13,25.125 L25.125,25.125 Z" id="Rectangle" stroke="#52B84F" stroke-width="1.75"></path>
                                    <path d="M43,0 L43,0 L43,0 C50.1797017,-1.31888981e-15 56,5.82029825 56,13 L56,25.25 L56,25.25 C56,25.6642136 55.6642136,26 55.25,26 L43,26 L43,26 C35.8202983,26 30,20.1797017 30,13 L30,13 L30,13 C30,5.82029825 35.8202983,1.31888981e-15 43,0 Z" id="Rectangle" fill="#52B84F"></path>
                                    <path d="M43,30 L55.25,30 L55.25,30 C55.6642136,30 56,30.3357864 56,30.75 L56,43 L56,43 C56,50.1797017 50.1797017,56 43,56 L43,56 L43,56 C35.8202983,56 30,50.1797017 30,43 L30,43 L30,43 C30,35.8202983 35.8202983,30 43,30 Z" id="Rectangle" fill="#52B84F"></path>
                                </g>
                            </g>
                        </g>
                        <g id="logo-12" transform="translate(300.000000, 300.000000)">
                            <g id="logo">
                                <g id="mark">
                                    <path d="M25.125,25.125 L25.125,13 C25.125,6.30354741 19.6964526,0.875 13,0.875 C6.30354741,0.875 0.875,6.30354741 0.875,13 C0.875,19.6964526 6.30354741,25.125 13,25.125 L25.125,25.125 Z" id="Rectangle" stroke="#52B84F" stroke-width="1.75"></path>
                                    <path d="M43,0 L43,0 L43,0 C50.1797017,-1.31888981e-15 56,5.82029825 56,13 L56,25.25 L56,25.25 C56,25.6642136 55.6642136,26 55.25,26 L43,26 L43,26 C35.8202983,26 30,20.1797017 30,13 L30,13 L30,13 C30,5.82029825 35.8202983,1.31888981e-15 43,0 Z" id="Rectangle" fill="#52B84F"></path>
                                    <path d="M43,30 L55.25,30 L55.25,30 C55.6642136,30 56,30.3357864 56,30.75 L56,43 L56,43 C56,50.1797017 50.1797017,56 43,56 L43,56 L43,56 C35.8202983,56 30,50.1797017 30,43 L30,43 L30,43 C30,35.8202983 35.8202983,30 43,30 Z" id="Rectangle" fill="#52B84F"></path>
                                </g>
                            </g>
                        </g>
                        <g id="logo-12" transform="translate(360.000000, 240.000000)">
                            <g id="logo">
                                <g id="mark">
                                    <path d="M25.125,25.125 L25.125,13 C25.125,6.30354741 19.6964526,0.875 13,0.875 C6.30354741,0.875 0.875,6.30354741 0.875,13 C0.875,19.6964526 6.30354741,25.125 13,25.125 L25.125,25.125 Z" id="Rectangle" stroke="#52B84F" stroke-width="1.75"></path>
                                    <path d="M43,0 L43,0 L43,0 C50.1797017,-1.31888981e-15 56,5.82029825 56,13 L56,25.25 L56,25.25 C56,25.6642136 55.6642136,26 55.25,26 L43,26 L43,26 C35.8202983,26 30,20.1797017 30,13 L30,13 L30,13 C30,5.82029825 35.8202983,1.31888981e-15 43,0 Z" id="Rectangle" fill="#52B84F"></path>
                                    <path d="M43,30 L55.25,30 L55.25,30 C55.6642136,30 56,30.3357864 56,30.75 L56,43 L56,43 C56,50.1797017 50.1797017,56 43,56 L43,56 L43,56 C35.8202983,56 30,50.1797017 30,43 L30,43 L30,43 C30,35.8202983 35.8202983,30 43,30 Z" id="Rectangle" fill="#52B84F"></path>
                                </g>
                            </g>
                        </g>
                        <g id="logo-12" transform="translate(420.000000, 240.000000)">
                            <g id="logo">
                                <g id="mark">
                                    <path d="M25.125,25.125 L25.125,13 C25.125,6.30354741 19.6964526,0.875 13,0.875 C6.30354741,0.875 0.875,6.30354741 0.875,13 C0.875,19.6964526 6.30354741,25.125 13,25.125 L25.125,25.125 Z" id="Rectangle" stroke="#52B84F" stroke-width="1.75"></path>
                                    <path d="M43,0 L43,0 L43,0 C50.1797017,-1.31888981e-15 56,5.82029825 56,13 L56,25.25 L56,25.25 C56,25.6642136 55.6642136,26 55.25,26 L43,26 L43,26 C35.8202983,26 30,20.1797017 30,13 L30,13 L30,13 C30,5.82029825 35.8202983,1.31888981e-15 43,0 Z" id="Rectangle" fill="#52B84F"></path>
                                    <path d="M43,30 L55.25,30 L55.25,30 C55.6642136,30 56,30.3357864 56,30.75 L56,43 L56,43 C56,50.1797017 50.1797017,56 43,56 L43,56 L43,56 C35.8202983,56 30,50.1797017 30,43 L30,43 L30,43 C30,35.8202983 35.8202983,30 43,30 Z" id="Rectangle" fill="#52B84F"></path>
                                </g>
                            </g>
                        </g>
                        <g id="logo-12" transform="translate(360.000000, 300.000000)">
                            <g id="logo">
                                <g id="mark">
                                    <path d="M25.125,25.125 L25.125,13 C25.125,6.30354741 19.6964526,0.875 13,0.875 C6.30354741,0.875 0.875,6.30354741 0.875,13 C0.875,19.6964526 6.30354741,25.125 13,25.125 L25.125,25.125 Z" id="Rectangle" stroke="#52B84F" stroke-width="1.75"></path>
                                    <path d="M43,0 L43,0 L43,0 C50.1797017,-1.31888981e-15 56,5.82029825 56,13 L56,25.25 L56,25.25 C56,25.6642136 55.6642136,26 55.25,26 L43,26 L43,26 C35.8202983,26 30,20.1797017 30,13 L30,13 L30,13 C30,5.82029825 35.8202983,1.31888981e-15 43,0 Z" id="Rectangle" fill="#52B84F"></path>
                                    <path d="M43,30 L55.25,30 L55.25,30 C55.6642136,30 56,30.3357864 56,30.75 L56,43 L56,43 C56,50.1797017 50.1797017,56 43,56 L43,56 L43,56 C35.8202983,56 30,50.1797017 30,43 L30,43 L30,43 C30,35.8202983 35.8202983,30 43,30 Z" id="Rectangle" fill="#52B84F"></path>
                                </g>
                            </g>
                        </g>
                        <g id="logo-12" transform="translate(420.000000, 300.000000)">
                            <g id="logo">
                                <g id="mark">
                                    <path d="M25.125,25.125 L25.125,13 C25.125,6.30354741 19.6964526,0.875 13,0.875 C6.30354741,0.875 0.875,6.30354741 0.875,13 C0.875,19.6964526 6.30354741,25.125 13,25.125 L25.125,25.125 Z" id="Rectangle" stroke="#52B84F" stroke-width="1.75"></path>
                                    <path d="M43,0 L43,0 L43,0 C50.1797017,-1.31888981e-15 56,5.82029825 56,13 L56,25.25 L56,25.25 C56,25.6642136 55.6642136,26 55.25,26 L43,26 L43,26 C35.8202983,26 30,20.1797017 30,13 L30,13 L30,13 C30,5.82029825 35.8202983,1.31888981e-15 43,0 Z" id="Rectangle" fill="#52B84F"></path>
                                    <path d="M43,30 L55.25,30 L55.25,30 C55.6642136,30 56,30.3357864 56,30.75 L56,43 L56,43 C56,50.1797017 50.1797017,56 43,56 L43,56 L43,56 C35.8202983,56 30,50.1797017 30,43 L30,43 L30,43 C30,35.8202983 35.8202983,30 43,30 Z" id="Rectangle" fill="#52B84F"></path>
                                </g>
                            </g>
                        </g>
                        <g id="logo-12" transform="translate(240.000000, 360.000000)">
                            <g id="logo">
                                <g id="mark">
                                    <path d="M25.125,25.125 L25.125,13 C25.125,6.30354741 19.6964526,0.875 13,0.875 C6.30354741,0.875 0.875,6.30354741 0.875,13 C0.875,19.6964526 6.30354741,25.125 13,25.125 L25.125,25.125 Z" id="Rectangle" stroke="#52B84F" stroke-width="1.75"></path>
                                    <path d="M43,0 L43,0 L43,0 C50.1797017,-1.31888981e-15 56,5.82029825 56,13 L56,25.25 L56,25.25 C56,25.6642136 55.6642136,26 55.25,26 L43,26 L43,26 C35.8202983,26 30,20.1797017 30,13 L30,13 L30,13 C30,5.82029825 35.8202983,1.31888981e-15 43,0 Z" id="Rectangle" fill="#52B84F"></path>
                                    <path d="M43,30 L55.25,30 L55.25,30 C55.6642136,30 56,30.3357864 56,30.75 L56,43 L56,43 C56,50.1797017 50.1797017,56 43,56 L43,56 L43,56 C35.8202983,56 30,50.1797017 30,43 L30,43 L30,43 C30,35.8202983 35.8202983,30 43,30 Z" id="Rectangle" fill="#52B84F"></path>
                                </g>
                            </g>
                        </g>
                        <g id="logo-12" transform="translate(300.000000, 360.000000)">
                            <g id="logo">
                                <g id="mark">
                                    <path d="M25.125,25.125 L25.125,13 C25.125,6.30354741 19.6964526,0.875 13,0.875 C6.30354741,0.875 0.875,6.30354741 0.875,13 C0.875,19.6964526 6.30354741,25.125 13,25.125 L25.125,25.125 Z" id="Rectangle" stroke="#52B84F" stroke-width="1.75"></path>
                                    <path d="M43,0 L43,0 L43,0 C50.1797017,-1.31888981e-15 56,5.82029825 56,13 L56,25.25 L56,25.25 C56,25.6642136 55.6642136,26 55.25,26 L43,26 L43,26 C35.8202983,26 30,20.1797017 30,13 L30,13 L30,13 C30,5.82029825 35.8202983,1.31888981e-15 43,0 Z" id="Rectangle" fill="#52B84F"></path>
                                    <path d="M43,30 L55.25,30 L55.25,30 C55.6642136,30 56,30.3357864 56,30.75 L56,43 L56,43 C56,50.1797017 50.1797017,56 43,56 L43,56 L43,56 C35.8202983,56 30,50.1797017 30,43 L30,43 L30,43 C30,35.8202983 35.8202983,30 43,30 Z" id="Rectangle" fill="#52B84F"></path>
                                </g>
                            </g>
                        </g>
                        <g id="logo-12" transform="translate(240.000000, 420.000000)">
                            <g id="logo">
                                <g id="mark">
                                    <path d="M25.125,25.125 L25.125,13 C25.125,6.30354741 19.6964526,0.875 13,0.875 C6.30354741,0.875 0.875,6.30354741 0.875,13 C0.875,19.6964526 6.30354741,25.125 13,25.125 L25.125,25.125 Z" id="Rectangle" stroke="#52B84F" stroke-width="1.75"></path>
                                    <path d="M43,0 L43,0 L43,0 C50.1797017,-1.31888981e-15 56,5.82029825 56,13 L56,25.25 L56,25.25 C56,25.6642136 55.6642136,26 55.25,26 L43,26 L43,26 C35.8202983,26 30,20.1797017 30,13 L30,13 L30,13 C30,5.82029825 35.8202983,1.31888981e-15 43,0 Z" id="Rectangle" fill="#52B84F"></path>
                                    <path d="M43,30 L55.25,30 L55.25,30 C55.6642136,30 56,30.3357864 56,30.75 L56,43 L56,43 C56,50.1797017 50.1797017,56 43,56 L43,56 L43,56 C35.8202983,56 30,50.1797017 30,43 L30,43 L30,43 C30,35.8202983 35.8202983,30 43,30 Z" id="Rectangle" fill="#52B84F"></path>
                                </g>
                            </g>
                        </g>
                        <g id="logo-12" transform="translate(300.000000, 420.000000)">
                            <g id="logo">
                                <g id="mark">
                                    <path d="M25.125,25.125 L25.125,13 C25.125,6.30354741 19.6964526,0.875 13,0.875 C6.30354741,0.875 0.875,6.30354741 0.875,13 C0.875,19.6964526 6.30354741,25.125 13,25.125 L25.125,25.125 Z" id="Rectangle" stroke="#52B84F" stroke-width="1.75"></path>
                                    <path d="M43,0 L43,0 L43,0 C50.1797017,-1.31888981e-15 56,5.82029825 56,13 L56,25.25 L56,25.25 C56,25.6642136 55.6642136,26 55.25,26 L43,26 L43,26 C35.8202983,26 30,20.1797017 30,13 L30,13 L30,13 C30,5.82029825 35.8202983,1.31888981e-15 43,0 Z" id="Rectangle" fill="#52B84F"></path>
                                    <path d="M43,30 L55.25,30 L55.25,30 C55.6642136,30 56,30.3357864 56,30.75 L56,43 L56,43 C56,50.1797017 50.1797017,56 43,56 L43,56 L43,56 C35.8202983,56 30,50.1797017 30,43 L30,43 L30,43 C30,35.8202983 35.8202983,30 43,30 Z" id="Rectangle" fill="#52B84F"></path>
                                </g>
                            </g>
                        </g>
                        <g id="logo-12" transform="translate(360.000000, 360.000000)">
                            <g id="logo">
                                <g id="mark">
                                    <path d="M25.125,25.125 L25.125,13 C25.125,6.30354741 19.6964526,0.875 13,0.875 C6.30354741,0.875 0.875,6.30354741 0.875,13 C0.875,19.6964526 6.30354741,25.125 13,25.125 L25.125,25.125 Z" id="Rectangle" stroke="#52B84F" stroke-width="1.75"></path>
                                    <path d="M43,0 L43,0 L43,0 C50.1797017,-1.31888981e-15 56,5.82029825 56,13 L56,25.25 L56,25.25 C56,25.6642136 55.6642136,26 55.25,26 L43,26 L43,26 C35.8202983,26 30,20.1797017 30,13 L30,13 L30,13 C30,5.82029825 35.8202983,1.31888981e-15 43,0 Z" id="Rectangle" fill="#52B84F"></path>
                                    <path d="M43,30 L55.25,30 L55.25,30 C55.6642136,30 56,30.3357864 56,30.75 L56,43 L56,43 C56,50.1797017 50.1797017,56 43,56 L43,56 L43,56 C35.8202983,56 30,50.1797017 30,43 L30,43 L30,43 C30,35.8202983 35.8202983,30 43,30 Z" id="Rectangle" fill="#52B84F"></path>
                                </g>
                            </g>
                        </g>
                        <g id="logo-12" transform="translate(420.000000, 360.000000)">
                            <g id="logo">
                                <g id="mark">
                                    <path d="M25.125,25.125 L25.125,13 C25.125,6.30354741 19.6964526,0.875 13,0.875 C6.30354741,0.875 0.875,6.30354741 0.875,13 C0.875,19.6964526 6.30354741,25.125 13,25.125 L25.125,25.125 Z" id="Rectangle" stroke="#52B84F" stroke-width="1.75"></path>
                                    <path d="M43,0 L43,0 L43,0 C50.1797017,-1.31888981e-15 56,5.82029825 56,13 L56,25.25 L56,25.25 C56,25.6642136 55.6642136,26 55.25,26 L43,26 L43,26 C35.8202983,26 30,20.1797017 30,13 L30,13 L30,13 C30,5.82029825 35.8202983,1.31888981e-15 43,0 Z" id="Rectangle" fill="#52B84F"></path>
                                    <path d="M43,30 L55.25,30 L55.25,30 C55.6642136,30 56,30.3357864 56,30.75 L56,43 L56,43 C56,50.1797017 50.1797017,56 43,56 L43,56 L43,56 C35.8202983,56 30,50.1797017 30,43 L30,43 L30,43 C30,35.8202983 35.8202983,30 43,30 Z" id="Rectangle" fill="#52B84F"></path>
                                </g>
                            </g>
                        </g>
                        <g id="logo-12" transform="translate(360.000000, 420.000000)">
                            <g id="logo">
                                <g id="mark">
                                    <path d="M25.125,25.125 L25.125,13 C25.125,6.30354741 19.6964526,0.875 13,0.875 C6.30354741,0.875 0.875,6.30354741 0.875,13 C0.875,19.6964526 6.30354741,25.125 13,25.125 L25.125,25.125 Z" id="Rectangle" stroke="#52B84F" stroke-width="1.75"></path>
                                    <path d="M43,0 L43,0 L43,0 C50.1797017,-1.31888981e-15 56,5.82029825 56,13 L56,25.25 L56,25.25 C56,25.6642136 55.6642136,26 55.25,26 L43,26 L43,26 C35.8202983,26 30,20.1797017 30,13 L30,13 L30,13 C30,5.82029825 35.8202983,1.31888981e-15 43,0 Z" id="Rectangle" fill="#52B84F"></path>
                                    <path d="M43,30 L55.25,30 L55.25,30 C55.6642136,30 56,30.3357864 56,30.75 L56,43 L56,43 C56,50.1797017 50.1797017,56 43,56 L43,56 L43,56 C35.8202983,56 30,50.1797017 30,43 L30,43 L30,43 C30,35.8202983 35.8202983,30 43,30 Z" id="Rectangle" fill="#52B84F"></path>
                                </g>
                            </g>
                        </g>
                        <g id="logo-12" transform="translate(420.000000, 420.000000)">
                            <g id="logo">
                                <g id="mark">
                                    <path d="M25.125,25.125 L25.125,13 C25.125,6.30354741 19.6964526,0.875 13,0.875 C6.30354741,0.875 0.875,6.30354741 0.875,13 C0.875,19.6964526 6.30354741,25.125 13,25.125 L25.125,25.125 Z" id="Rectangle" stroke="#52B84F" stroke-width="1.75"></path>
                                    <path d="M43,0 L43,0 L43,0 C50.1797017,-1.31888981e-15 56,5.82029825 56,13 L56,25.25 L56,25.25 C56,25.6642136 55.6642136,26 55.25,26 L43,26 L43,26 C35.8202983,26 30,20.1797017 30,13 L30,13 L30,13 C30,5.82029825 35.8202983,1.31888981e-15 43,0 Z" id="Rectangle" fill="#52B84F"></path>
                                    <path d="M43,30 L55.25,30 L55.25,30 C55.6642136,30 56,30.3357864 56,30.75 L56,43 L56,43 C56,50.1797017 50.1797017,56 43,56 L43,56 L43,56 C35.8202983,56 30,50.1797017 30,43 L30,43 L30,43 C30,35.8202983 35.8202983,30 43,30 Z" id="Rectangle" fill="#52B84F"></path>
                                </g>
                            </g>
                        </g>
                    </g>
                </g>
            </g>
        </g>
    </g>
</svg>