<?xml version="1.0" encoding="UTF-8"?>
<svg width="248px" height="169px" viewBox="0 0 248 169" version="1.1" xmlns="http://www.w3.org/2000/svg" xmlns:xlink="http://www.w3.org/1999/xlink">
    <!-- Generator: Sketch 47.1 (45422) - http://www.bohemiancoding.com/sketch -->
    <title>Page 1</title>
    <desc>Created with Sketch.</desc>
    <defs>
        <polygon id="path-1" points="123.824377 56.3333333 247.648604 56.3333333 247.648604 0.614408889 0.000149848943 0.614408889 0.000149848943 56.3333333"></polygon>
        <polygon id="path-3" points="89.624471 0.291431111 0.632228196 0.291431111 0.632228196 80.8465956 89.624471 80.8465956 89.624471 0.291431111"></polygon>
    </defs>
    <g id="Page-1" stroke="none" stroke-width="1" fill="none" fill-rule="evenodd">
        <g id="home" transform="translate(-1226.000000, -1834.000000)">
            <g id="Group-Copy" transform="translate(258.000000, 1679.000000)">
                <g id="Group-8" transform="translate(771.000000, 0.000000)">
                    <g id="Page-1" transform="translate(197.000000, 155.000000)">
                        <g id="Group-3" transform="translate(0.000000, 112.375236)">
                            <mask id="mask-2" fill="white">
                                <use xlink:href="#path-1"></use>
                            </mask>
                            <g id="Clip-2"></g>
                            <path d="M215.463449,11.98548 L223.817527,11.98548 L231.730301,34.4699911 L239.380839,11.98548 L247.648754,11.98548 L234.633624,44.1690889 C232.344682,49.8106844 228.652404,53.8659333 223.639956,56.3333333 L219.769358,50.8682489 C223.287811,49.36828 225.839739,46.90088 227.420645,43.4622933 L215.463449,11.98548 Z M198.926869,6.87416889 L204.820428,6.87416889 L205.963026,11.98548 L213.879546,11.98548 L213.879546,18.2467422 L206.843389,18.2467422 L206.843389,32.6177511 C206.843389,35.5275556 208.072899,37.0252711 210.623328,37.0252711 L213.879546,37.0252711 L213.879546,43.2857822 L206.843389,43.2857822 C201.566458,43.2857822 198.926869,40.4668622 198.926869,34.8230133 L198.926869,6.87416889 Z M172.544464,24.8610267 L185.824827,24.8610267 L185.824827,24.6815111 C185.824827,20.2747422 183.625044,18.1596133 179.315389,18.1596133 C175.096392,18.1596133 172.896609,20.3603689 172.544464,24.8610267 L172.544464,24.8610267 Z M179.315389,11.98548 C188.725153,11.98548 193.476114,16.8369067 193.476114,26.5352533 C193.476114,27.7708311 193.386204,29.0890311 193.21163,30.3246089 L172.544464,30.3246089 C172.544464,34.8230133 175.710023,37.0252711 182.218712,37.0252711 C185.384271,37.0252711 188.462917,36.6722489 191.628476,36.0540844 L191.628476,42.3160978 C188.901975,42.9335111 185.561092,43.2857822 181.602833,43.2857822 C170.257769,43.2857822 164.629443,37.9085778 164.629443,27.2397956 C164.629443,17.0119156 169.554978,11.98548 179.315389,11.98548 L179.315389,11.98548 Z M145.896827,43.2857822 L145.896827,11.98548 L151.96421,11.98548 L152.932984,15.9528489 C155.749395,13.3089378 158.649721,11.98548 161.639207,11.98548 L161.639207,18.3338711 C158.73963,18.3338711 156.10079,19.5702 153.814095,22.0376 L153.814095,43.2857822 L145.896827,43.2857822 Z M138.510772,11.98548 L138.510772,43.2857822 L132.354228,43.2857822 L131.387703,39.2297822 C127.782337,41.8744444 123.998651,43.2857822 119.955727,43.2857822 C113.5347,43.2857822 110.368392,39.4956756 110.368392,31.9117067 L110.368392,11.98548 L118.284162,11.98548 L118.284162,31.6480667 C118.284162,35.1760356 119.779654,36.8502622 122.76989,36.8502622 C125.318071,36.8502622 127.956911,35.8798267 130.595002,33.7646978 L130.595002,11.98548 L138.510772,11.98548 Z M79.9408145,41.7895689 L79.9408145,35.1760356 C83.3693583,36.5843689 87.4167782,37.2896622 91.8995094,37.2896622 C95.3303009,37.2896622 97.0011166,36.2320978 97.0011166,34.0275867 C97.0011166,31.9117067 95.8577692,30.8556444 93.5710743,30.8556444 L87.9434973,30.8556444 C81.6116302,30.8556444 78.4453221,27.7708311 78.4453221,21.51032 C78.4453221,14.8967867 83.0179625,11.6332089 92.3400653,11.6332089 C96.209165,11.6332089 99.9029414,12.2513733 103.421395,13.3960667 L103.421395,20.0088489 C99.9029414,18.5997644 96.1222526,17.89372 92.0770804,17.89372 C87.8550864,17.89372 85.7452133,19.0391644 85.7452133,21.1580489 C85.7452133,23.2724267 86.9754731,24.3299911 89.4389897,24.3299911 L94.4506876,24.3299911 C101.397685,24.3299911 104.915389,27.4148044 104.915389,33.6745644 C104.915389,40.2873467 100.431908,43.5509244 91.6365245,43.5509244 C87.2407057,43.5509244 83.3693583,42.9335111 79.9408145,41.7895689 L79.9408145,41.7895689 Z M49.4248266,41.7895689 L49.4248266,35.1760356 C52.8533704,36.5843689 56.9000411,37.2896622 61.4719323,37.2896622 C64.8135637,37.2896622 66.4851287,36.2320978 66.4851287,34.0275867 C66.4851287,31.9117067 65.3417813,30.8556444 63.142748,30.8556444 L57.4267601,30.8556444 C51.0948931,30.8556444 47.9293341,27.7708311 47.9293341,21.51032 C47.9293341,14.8967867 52.5896363,11.6332089 61.8233281,11.6332089 C65.7808387,11.6332089 69.4746151,12.2513733 72.9046574,13.3960667 L72.9046574,20.0088489 C69.4746151,18.5997644 65.693177,17.89372 61.6480048,17.89372 C57.3383492,17.89372 55.2284761,19.0391644 55.2284761,21.1580489 C55.2284761,23.2724267 56.4594852,24.3299911 58.9222526,24.3299911 L64.0223613,24.3299911 C70.9701076,24.3299911 74.4001498,27.4148044 74.4001498,33.6745644 C74.4001498,40.2873467 70.0020834,43.5509244 61.1205366,43.5509244 C56.810881,43.5509244 52.8533704,42.9335111 49.4248266,41.7895689 L49.4248266,41.7895689 Z M8.09049426,43.2857822 L0.000149848943,43.2857822 L18.0284761,0.614408889 L26.5586272,0.614408889 L44.9390985,43.2857822 L36.4958598,43.2857822 L31.658736,31.6480667 L17.5010079,31.6480667 L20.2267601,24.7716444 L28.7569112,24.7716444 L22.0736483,8.72340444 L8.09049426,43.2857822 Z" id="Fill-1" fill="#FFFFFF" mask="url(#mask-2)"></path>
                        </g>
                        <g id="Group-6" transform="translate(78.670695, 0.459680)">
                            <mask id="mask-4" fill="white">
                                <use xlink:href="#path-3"></use>
                            </mask>
                            <g id="Clip-5"></g>
                            <path d="M32.6803311,14.7548267 C32.6803311,14.7548267 45.1537571,22.7939689 37.7294912,35.9909911 L25.3549656,57.8235378 C20.1087541,67.1523378 13.7746393,78.8636622 30.7015758,80.8465956 L9.71598066,80.8465956 C2.09241571,80.6483022 -2.0651432,75.8855067 2.58766647,67.7472178 L20.2084036,36.5866222 L32.6803311,14.7548267 Z M52.7743251,6.02090667 L70.1995094,36.5866222 L87.9176483,67.5496756 C91.5807057,74.3968044 89.5000532,80.3501111 80.1951831,80.3501111 L45.2519082,80.3501111 C18.6259988,80.3501111 31.097177,62.0906 43.8665547,39.6639244 C34.958035,63.8774933 44.5588568,65.3669467 60.0000411,65.3669467 L69.5057088,65.3669467 L45.2519082,22.7939689 L41.2928991,16.6408667 C40.3031468,15.0530178 37.7294912,14.8532222 35.4517873,14.7548267 L33.9675335,14.7548267 C33.4737813,14.7548267 33.0774308,14.8532222 32.6803311,14.7548267 L24.8612133,14.7548267 C16.9424459,14.7548267 10.5064338,8.30578667 10.5064338,0.36504 L44.3618054,0.36504 C44.954458,0.266644444 45.6475094,0.266644444 46.2424097,0.36504 L46.3405607,0.36504 C48.5193644,0.761626667 50.7955698,2.54852 52.7743251,6.02090667 L52.7743251,6.02090667 Z" id="Fill-4" fill="#FFFFFF" mask="url(#mask-4)"></path>
                        </g>
                    </g>
                </g>
            </g>
        </g>
    </g>
</svg>